<svg xmlns="http://www.w3.org/2000/svg" xmlns:xlink="http://www.w3.org/1999/xlink" width="500" zoomAndPan="magnify" viewBox="0 0 375 374.999991" height="500" preserveAspectRatio="xMidYMid meet" version="1.0"><defs><g/></defs><g fill="#000000" fill-opacity="1"><g transform="translate(1.409184, 220.877045)"><g><path d="M 19.984375 -9.1875 C 19.984375 -7.09375 20.195312 -5.578125 20.625 -4.640625 C 21.0625 -3.703125 21.851562 -3.070312 23 -2.75 C 24.15625 -2.425781 26.03125 -2.265625 28.625 -2.265625 L 40.390625 -2.265625 C 44.492188 -2.265625 47.769531 -3.523438 50.21875 -6.046875 C 52.664062 -8.566406 54.285156 -12.0625 55.078125 -16.53125 C 55.078125 -16.738281 55.273438 -16.820312 55.671875 -16.78125 C 56.066406 -16.75 56.265625 -16.628906 56.265625 -16.421875 C 55.617188 -10.441406 55.296875 -5.507812 55.296875 -1.625 C 55.296875 -1.039062 55.1875 -0.625 54.96875 -0.375 C 54.75 -0.125 54.316406 0 53.671875 0 L 3.78125 0 C 3.632812 0 3.5625 -0.210938 3.5625 -0.640625 C 3.5625 -1.078125 3.632812 -1.296875 3.78125 -1.296875 C 6.519531 -1.296875 8.515625 -1.472656 9.765625 -1.828125 C 11.023438 -2.191406 11.867188 -2.894531 12.296875 -3.9375 C 12.734375 -4.988281 12.953125 -6.59375 12.953125 -8.75 L 12.953125 -58.75 C 12.953125 -60.90625 12.734375 -62.488281 12.296875 -63.5 C 11.867188 -64.507812 11.023438 -65.210938 9.765625 -65.609375 C 8.515625 -66.003906 6.519531 -66.203125 3.78125 -66.203125 C 3.632812 -66.203125 3.5625 -66.414062 3.5625 -66.84375 C 3.5625 -67.28125 3.632812 -67.5 3.78125 -67.5 L 9.078125 -67.390625 C 12.097656 -67.242188 14.546875 -67.171875 16.421875 -67.171875 C 18.429688 -67.171875 20.945312 -67.242188 23.96875 -67.390625 L 29.15625 -67.5 C 29.375 -67.5 29.484375 -67.28125 29.484375 -66.84375 C 29.484375 -66.414062 29.375 -66.203125 29.15625 -66.203125 C 26.488281 -66.203125 24.523438 -66.003906 23.265625 -65.609375 C 22.015625 -65.210938 21.15625 -64.492188 20.6875 -63.453125 C 20.21875 -62.410156 19.984375 -60.804688 19.984375 -58.640625 Z M 19.984375 -9.1875 "/></g></g></g><g fill="#000000" fill-opacity="1"><g transform="translate(58.973202, 220.877045)"><g><path d="M 14.796875 -55.296875 C 13.285156 -55.296875 12.113281 -55.691406 11.28125 -56.484375 C 10.457031 -57.273438 10.046875 -58.390625 10.046875 -59.828125 C 10.046875 -61.265625 10.457031 -62.378906 11.28125 -63.171875 C 12.113281 -63.972656 13.285156 -64.375 14.796875 -64.375 C 16.234375 -64.375 17.347656 -63.972656 18.140625 -63.171875 C 18.929688 -62.378906 19.328125 -61.265625 19.328125 -59.828125 C 19.328125 -58.390625 18.929688 -57.273438 18.140625 -56.484375 C 17.347656 -55.691406 16.234375 -55.296875 14.796875 -55.296875 Z M 5.71875 0 C 5.582031 0 5.515625 -0.210938 5.515625 -0.640625 C 5.515625 -1.078125 5.582031 -1.296875 5.71875 -1.296875 C 7.664062 -1.296875 9.125 -1.492188 10.09375 -1.890625 C 11.070312 -2.285156 11.738281 -3.003906 12.09375 -4.046875 C 12.457031 -5.085938 12.640625 -6.65625 12.640625 -8.75 L 12.640625 -28.9375 C 12.640625 -31.53125 12.367188 -33.398438 11.828125 -34.546875 C 11.285156 -35.703125 10.367188 -36.28125 9.078125 -36.28125 C 7.773438 -36.28125 6.15625 -35.78125 4.21875 -34.78125 L 4.109375 -34.78125 C 3.816406 -34.78125 3.597656 -34.957031 3.453125 -35.3125 C 3.304688 -35.675781 3.34375 -35.929688 3.5625 -36.078125 L 17.609375 -42.546875 L 18.03125 -42.65625 C 18.175781 -42.65625 18.359375 -42.566406 18.578125 -42.390625 C 18.796875 -42.210938 18.90625 -42.015625 18.90625 -41.796875 C 18.90625 -41.296875 18.867188 -39.851562 18.796875 -37.46875 C 18.722656 -35.09375 18.6875 -32.285156 18.6875 -29.046875 L 18.6875 -8.75 C 18.6875 -6.59375 18.863281 -5.007812 19.21875 -4 C 19.582031 -2.988281 20.234375 -2.285156 21.171875 -1.890625 C 22.109375 -1.492188 23.546875 -1.296875 25.484375 -1.296875 C 25.703125 -1.296875 25.8125 -1.078125 25.8125 -0.640625 C 25.8125 -0.210938 25.703125 0 25.484375 0 C 23.828125 0 22.492188 -0.0351562 21.484375 -0.109375 L 15.65625 -0.21875 L 9.828125 -0.109375 C 8.816406 -0.0351562 7.445312 0 5.71875 0 Z M 5.71875 0 "/></g></g></g><g fill="#000000" fill-opacity="1"><g transform="translate(88.457209, 220.877045)"><g><path d="M 53.453125 -1.296875 C 53.671875 -1.296875 53.78125 -1.078125 53.78125 -0.640625 C 53.78125 -0.210938 53.671875 0 53.453125 0 C 51.796875 0 50.503906 -0.0351562 49.578125 -0.109375 L 43.734375 -0.21875 L 37.796875 -0.109375 C 36.859375 -0.0351562 35.5625 0 33.90625 0 C 33.695312 0 33.59375 -0.210938 33.59375 -0.640625 C 33.59375 -1.078125 33.695312 -1.296875 33.90625 -1.296875 C 35.851562 -1.296875 37.296875 -1.492188 38.234375 -1.890625 C 39.171875 -2.285156 39.800781 -2.988281 40.125 -4 C 40.445312 -5.007812 40.609375 -6.59375 40.609375 -8.75 L 40.609375 -26.25 C 40.609375 -30.488281 39.796875 -33.613281 38.171875 -35.625 C 36.554688 -37.644531 34.054688 -38.65625 30.671875 -38.65625 C 28.441406 -38.65625 26.191406 -38.0625 23.921875 -36.875 C 21.648438 -35.6875 19.582031 -34.050781 17.71875 -31.96875 L 17.71875 -8.75 C 17.71875 -6.59375 17.878906 -5.007812 18.203125 -4 C 18.523438 -2.988281 19.148438 -2.285156 20.078125 -1.890625 C 21.015625 -1.492188 22.457031 -1.296875 24.40625 -1.296875 C 24.625 -1.296875 24.734375 -1.078125 24.734375 -0.640625 C 24.734375 -0.210938 24.625 0 24.40625 0 C 22.75 0 21.453125 -0.0351562 20.515625 -0.109375 L 14.6875 -0.21875 L 8.75 -0.109375 C 7.8125 -0.0351562 6.515625 0 4.859375 0 C 4.640625 0 4.53125 -0.210938 4.53125 -0.640625 C 4.53125 -1.078125 4.640625 -1.296875 4.859375 -1.296875 C 6.804688 -1.296875 8.242188 -1.492188 9.171875 -1.890625 C 10.109375 -2.285156 10.738281 -2.988281 11.0625 -4 C 11.394531 -5.007812 11.5625 -6.59375 11.5625 -8.75 L 11.5625 -30.125 C 11.5625 -32.570312 11.269531 -34.335938 10.6875 -35.421875 C 10.113281 -36.503906 9.144531 -37.046875 7.78125 -37.046875 C 6.625 -37.046875 4.675781 -36.503906 1.9375 -35.421875 L 1.734375 -35.421875 C 1.441406 -35.421875 1.238281 -35.582031 1.125 -35.90625 C 1.019531 -36.226562 1.113281 -36.460938 1.40625 -36.609375 L 13.9375 -42.546875 L 14.578125 -42.65625 C 15.222656 -42.65625 15.90625 -41.828125 16.625 -40.171875 C 17.351562 -38.515625 17.71875 -36.390625 17.71875 -33.796875 C 20.445312 -36.972656 23.160156 -39.316406 25.859375 -40.828125 C 28.566406 -42.335938 31.359375 -43.09375 34.234375 -43.09375 C 38.265625 -43.09375 41.359375 -41.972656 43.515625 -39.734375 C 45.679688 -37.503906 46.765625 -34.234375 46.765625 -29.921875 L 46.765625 -8.75 C 46.765625 -6.59375 46.925781 -5.007812 47.25 -4 C 47.570312 -2.988281 48.203125 -2.285156 49.140625 -1.890625 C 50.078125 -1.492188 51.515625 -1.296875 53.453125 -1.296875 Z M 53.453125 -1.296875 "/></g></g></g><g fill="#000000" fill-opacity="1"><g transform="translate(144.293227, 220.877045)"><g><path d="M 53.453125 -1.296875 C 53.671875 -1.296875 53.78125 -1.078125 53.78125 -0.640625 C 53.78125 -0.210938 53.671875 0 53.453125 0 C 51.796875 0 50.503906 -0.0351562 49.578125 -0.109375 L 43.734375 -0.21875 L 37.796875 -0.109375 C 36.859375 -0.0351562 35.5625 0 33.90625 0 C 33.695312 0 33.59375 -0.210938 33.59375 -0.640625 C 33.59375 -1.078125 33.695312 -1.296875 33.90625 -1.296875 C 35.851562 -1.296875 37.296875 -1.492188 38.234375 -1.890625 C 39.171875 -2.285156 39.800781 -2.988281 40.125 -4 C 40.445312 -5.007812 40.609375 -6.59375 40.609375 -8.75 L 40.609375 -26.25 C 40.609375 -30.488281 39.796875 -33.613281 38.171875 -35.625 C 36.554688 -37.644531 34.054688 -38.65625 30.671875 -38.65625 C 28.441406 -38.65625 26.191406 -38.0625 23.921875 -36.875 C 21.648438 -35.6875 19.582031 -34.050781 17.71875 -31.96875 L 17.71875 -8.75 C 17.71875 -6.59375 17.878906 -5.007812 18.203125 -4 C 18.523438 -2.988281 19.148438 -2.285156 20.078125 -1.890625 C 21.015625 -1.492188 22.457031 -1.296875 24.40625 -1.296875 C 24.625 -1.296875 24.734375 -1.078125 24.734375 -0.640625 C 24.734375 -0.210938 24.625 0 24.40625 0 C 22.75 0 21.453125 -0.0351562 20.515625 -0.109375 L 14.6875 -0.21875 L 8.75 -0.109375 C 7.8125 -0.0351562 6.515625 0 4.859375 0 C 4.640625 0 4.53125 -0.210938 4.53125 -0.640625 C 4.53125 -1.078125 4.640625 -1.296875 4.859375 -1.296875 C 6.804688 -1.296875 8.242188 -1.492188 9.171875 -1.890625 C 10.109375 -2.285156 10.738281 -2.988281 11.0625 -4 C 11.394531 -5.007812 11.5625 -6.59375 11.5625 -8.75 L 11.5625 -30.125 C 11.5625 -32.570312 11.269531 -34.335938 10.6875 -35.421875 C 10.113281 -36.503906 9.144531 -37.046875 7.78125 -37.046875 C 6.625 -37.046875 4.675781 -36.503906 1.9375 -35.421875 L 1.734375 -35.421875 C 1.441406 -35.421875 1.238281 -35.582031 1.125 -35.90625 C 1.019531 -36.226562 1.113281 -36.460938 1.40625 -36.609375 L 13.9375 -42.546875 L 14.578125 -42.65625 C 15.222656 -42.65625 15.90625 -41.828125 16.625 -40.171875 C 17.351562 -38.515625 17.71875 -36.390625 17.71875 -33.796875 C 20.445312 -36.972656 23.160156 -39.316406 25.859375 -40.828125 C 28.566406 -42.335938 31.359375 -43.09375 34.234375 -43.09375 C 38.265625 -43.09375 41.359375 -41.972656 43.515625 -39.734375 C 45.679688 -37.503906 46.765625 -34.234375 46.765625 -29.921875 L 46.765625 -8.75 C 46.765625 -6.59375 46.925781 -5.007812 47.25 -4 C 47.570312 -2.988281 48.203125 -2.285156 49.140625 -1.890625 C 50.078125 -1.492188 51.515625 -1.296875 53.453125 -1.296875 Z M 53.453125 -1.296875 "/></g></g></g><g fill="#000000" fill-opacity="1"><g transform="translate(200.129233, 220.877045)"><g><path d="M 38.765625 -6.046875 C 38.984375 -6.046875 39.179688 -5.921875 39.359375 -5.671875 C 39.546875 -5.421875 39.566406 -5.1875 39.421875 -4.96875 C 34.671875 -0.789062 29.414062 1.296875 23.65625 1.296875 C 19.476562 1.296875 15.910156 0.328125 12.953125 -1.609375 C 10.003906 -3.554688 7.753906 -6.113281 6.203125 -9.28125 C 4.660156 -12.457031 3.890625 -15.84375 3.890625 -19.4375 C 3.890625 -23.6875 4.894531 -27.59375 6.90625 -31.15625 C 8.925781 -34.71875 11.679688 -37.523438 15.171875 -39.578125 C 18.660156 -41.628906 22.492188 -42.65625 26.671875 -42.65625 C 30.703125 -42.65625 33.796875 -41.578125 35.953125 -39.421875 C 38.117188 -37.265625 39.203125 -34.238281 39.203125 -30.34375 C 39.203125 -29.34375 39.109375 -28.625 38.921875 -28.1875 C 38.742188 -27.757812 38.441406 -27.546875 38.015625 -27.546875 L 11.234375 -27.4375 C 11.085938 -25.851562 11.015625 -24.554688 11.015625 -23.546875 C 11.015625 -17.273438 12.488281 -12.195312 15.4375 -8.3125 C 18.394531 -4.425781 22.535156 -2.484375 27.859375 -2.484375 C 30.023438 -2.484375 31.878906 -2.769531 33.421875 -3.34375 C 34.972656 -3.925781 36.71875 -4.828125 38.65625 -6.046875 Z M 23.109375 -40.5 C 20.015625 -40.5 17.457031 -39.472656 15.4375 -37.421875 C 13.425781 -35.367188 12.097656 -32.507812 11.453125 -28.84375 L 31.96875 -29.265625 C 31.96875 -32.941406 31.175781 -35.734375 29.59375 -37.640625 C 28.007812 -39.546875 25.847656 -40.5 23.109375 -40.5 Z M 23.109375 -40.5 "/></g></g></g><g fill="#000000" fill-opacity="1"><g transform="translate(244.193264, 220.877045)"><g><path d="M 46.546875 -41.6875 C 46.691406 -41.6875 46.765625 -41.46875 46.765625 -41.03125 C 46.765625 -40.601562 46.691406 -40.390625 46.546875 -40.390625 C 44.742188 -40.390625 43.191406 -39.796875 41.890625 -38.609375 C 40.597656 -37.421875 39.378906 -35.390625 38.234375 -32.515625 L 24.734375 -0.109375 C 24.585938 0.253906 24.191406 0.4375 23.546875 0.4375 C 22.898438 0.4375 22.503906 0.253906 22.359375 -0.109375 L 7.234375 -32.71875 C 5.796875 -35.820312 4.585938 -37.875 3.609375 -38.875 C 2.640625 -39.882812 1.4375 -40.390625 0 -40.390625 C -0.21875 -40.390625 -0.328125 -40.601562 -0.328125 -41.03125 C -0.328125 -41.46875 -0.21875 -41.6875 0 -41.6875 C 1.4375 -41.6875 2.550781 -41.648438 3.34375 -41.578125 L 7.453125 -41.46875 L 14.46875 -41.578125 C 15.550781 -41.648438 16.992188 -41.6875 18.796875 -41.6875 C 19.003906 -41.6875 19.109375 -41.46875 19.109375 -41.03125 C 19.109375 -40.601562 19.003906 -40.390625 18.796875 -40.390625 C 14.472656 -40.390625 12.3125 -39.523438 12.3125 -37.796875 C 12.3125 -37.296875 12.457031 -36.757812 12.75 -36.1875 L 25.921875 -8.3125 L 36.078125 -33.046875 C 36.578125 -34.410156 36.828125 -35.457031 36.828125 -36.1875 C 36.828125 -37.625 36.140625 -38.679688 34.765625 -39.359375 C 33.398438 -40.046875 31.242188 -40.390625 28.296875 -40.390625 C 28.148438 -40.390625 28.078125 -40.601562 28.078125 -41.03125 C 28.078125 -41.46875 28.148438 -41.6875 28.296875 -41.6875 C 30.242188 -41.6875 31.71875 -41.648438 32.71875 -41.578125 L 39.203125 -41.46875 L 43.09375 -41.578125 C 43.8125 -41.648438 44.960938 -41.6875 46.546875 -41.6875 Z M 46.546875 -41.6875 "/></g></g></g><g fill="#000000" fill-opacity="1"><g transform="translate(291.065263, 220.877045)"><g><path d="M 14.796875 -55.296875 C 13.285156 -55.296875 12.113281 -55.691406 11.28125 -56.484375 C 10.457031 -57.273438 10.046875 -58.390625 10.046875 -59.828125 C 10.046875 -61.265625 10.457031 -62.378906 11.28125 -63.171875 C 12.113281 -63.972656 13.285156 -64.375 14.796875 -64.375 C 16.234375 -64.375 17.347656 -63.972656 18.140625 -63.171875 C 18.929688 -62.378906 19.328125 -61.265625 19.328125 -59.828125 C 19.328125 -58.390625 18.929688 -57.273438 18.140625 -56.484375 C 17.347656 -55.691406 16.234375 -55.296875 14.796875 -55.296875 Z M 5.71875 0 C 5.582031 0 5.515625 -0.210938 5.515625 -0.640625 C 5.515625 -1.078125 5.582031 -1.296875 5.71875 -1.296875 C 7.664062 -1.296875 9.125 -1.492188 10.09375 -1.890625 C 11.070312 -2.285156 11.738281 -3.003906 12.09375 -4.046875 C 12.457031 -5.085938 12.640625 -6.65625 12.640625 -8.75 L 12.640625 -28.9375 C 12.640625 -31.53125 12.367188 -33.398438 11.828125 -34.546875 C 11.285156 -35.703125 10.367188 -36.28125 9.078125 -36.28125 C 7.773438 -36.28125 6.15625 -35.78125 4.21875 -34.78125 L 4.109375 -34.78125 C 3.816406 -34.78125 3.597656 -34.957031 3.453125 -35.3125 C 3.304688 -35.675781 3.34375 -35.929688 3.5625 -36.078125 L 17.609375 -42.546875 L 18.03125 -42.65625 C 18.175781 -42.65625 18.359375 -42.566406 18.578125 -42.390625 C 18.796875 -42.210938 18.90625 -42.015625 18.90625 -41.796875 C 18.90625 -41.296875 18.867188 -39.851562 18.796875 -37.46875 C 18.722656 -35.09375 18.6875 -32.285156 18.6875 -29.046875 L 18.6875 -8.75 C 18.6875 -6.59375 18.863281 -5.007812 19.21875 -4 C 19.582031 -2.988281 20.234375 -2.285156 21.171875 -1.890625 C 22.109375 -1.492188 23.546875 -1.296875 25.484375 -1.296875 C 25.703125 -1.296875 25.8125 -1.078125 25.8125 -0.640625 C 25.8125 -0.210938 25.703125 0 25.484375 0 C 23.828125 0 22.492188 -0.0351562 21.484375 -0.109375 L 15.65625 -0.21875 L 9.828125 -0.109375 C 8.816406 -0.0351562 7.445312 0 5.71875 0 Z M 5.71875 0 "/></g></g></g><g fill="#000000" fill-opacity="1"><g transform="translate(320.54927, 220.877045)"><g><path d="M 52.15625 -1.296875 C 52.375 -1.296875 52.484375 -1.078125 52.484375 -0.640625 C 52.484375 -0.210938 52.375 0 52.15625 0 C 50.507812 0 49.179688 -0.0351562 48.171875 -0.109375 L 42.34375 -0.21875 L 34.5625 -0.109375 C 33.40625 -0.0351562 31.859375 0 29.921875 0 C 29.773438 0 29.703125 -0.210938 29.703125 -0.640625 C 29.703125 -1.078125 29.773438 -1.296875 29.921875 -1.296875 C 33.515625 -1.296875 35.3125 -1.976562 35.3125 -3.34375 C 35.3125 -3.988281 34.988281 -4.78125 34.34375 -5.71875 L 21.0625 -23.765625 L 15.65625 -19.546875 L 15.65625 -8.75 C 15.65625 -6.65625 15.832031 -5.085938 16.1875 -4.046875 C 16.550781 -3.003906 17.203125 -2.285156 18.140625 -1.890625 C 19.078125 -1.492188 20.519531 -1.296875 22.46875 -1.296875 C 22.675781 -1.296875 22.78125 -1.078125 22.78125 -0.640625 C 22.78125 -0.210938 22.675781 0 22.46875 0 C 20.8125 0 19.476562 -0.0351562 18.46875 -0.109375 L 12.640625 -0.21875 L 6.796875 -0.109375 C 5.796875 -0.0351562 4.46875 0 2.8125 0 C 2.59375 0 2.484375 -0.210938 2.484375 -0.640625 C 2.484375 -1.078125 2.59375 -1.296875 2.8125 -1.296875 C 4.75 -1.296875 6.1875 -1.492188 7.125 -1.890625 C 8.0625 -2.285156 8.707031 -3.003906 9.0625 -4.046875 C 9.425781 -5.085938 9.609375 -6.65625 9.609375 -8.75 L 9.609375 -64.578125 C 9.609375 -67.171875 9.351562 -69.039062 8.84375 -70.1875 C 8.34375 -71.34375 7.445312 -71.921875 6.15625 -71.921875 C 5.070312 -71.921875 3.414062 -71.421875 1.1875 -70.421875 L 0.96875 -70.421875 C 0.75 -70.421875 0.566406 -70.597656 0.421875 -70.953125 C 0.285156 -71.316406 0.359375 -71.535156 0.640625 -71.609375 L 14.140625 -78.1875 L 14.6875 -78.296875 C 14.90625 -78.296875 15.117188 -78.207031 15.328125 -78.03125 C 15.546875 -77.851562 15.65625 -77.65625 15.65625 -77.4375 L 15.65625 -21.28125 L 30.125 -32.9375 C 32.4375 -34.738281 33.59375 -36.320312 33.59375 -37.6875 C 33.59375 -39.488281 31.539062 -40.390625 27.4375 -40.390625 C 27.21875 -40.390625 27.109375 -40.601562 27.109375 -41.03125 C 27.109375 -41.46875 27.21875 -41.6875 27.4375 -41.6875 C 29.375 -41.6875 30.847656 -41.648438 31.859375 -41.578125 L 39.75 -41.46875 L 46.984375 -41.578125 C 47.921875 -41.648438 49.21875 -41.6875 50.875 -41.6875 C 51.082031 -41.6875 51.1875 -41.46875 51.1875 -41.03125 C 51.1875 -40.601562 51.082031 -40.390625 50.875 -40.390625 C 48.207031 -40.390625 45.253906 -39.738281 42.015625 -38.4375 C 38.773438 -37.144531 35.535156 -35.203125 32.296875 -32.609375 L 26.03125 -27.640625 L 39.75 -8.75 C 43.34375 -3.78125 47.476562 -1.296875 52.15625 -1.296875 Z M 52.15625 -1.296875 "/></g></g></g></svg>