<svg width="360" height="90" viewBox="0 0 360 90" fill="none" xmlns="http://www.w3.org/2000/svg">
<path d="M309.758 48.4329C309.802 48.4028 309.855 48.3867 309.909 48.3867C309.963 48.3867 310.015 48.4028 310.06 48.4329C310.088 48.4572 310.11 48.4871 310.126 48.5208C310.141 48.5544 310.149 48.591 310.15 48.628C310.166 48.8391 310.166 49.0511 310.15 49.2622C310.15 52.9046 306.622 53.6445 303.74 53.6445C296.939 53.6445 291.827 49.189 291.827 42.2618C291.827 35.8793 295.844 31.4157 302.287 31.4157C307.398 31.4157 310.933 34.5866 310.933 39.6763C310.937 40.2204 310.899 40.7641 310.819 41.3024L297.453 43.1399C297.927 47.0588 300.58 49.7175 305.038 49.7175C306.687 49.8024 308.323 49.3825 309.725 48.5141L309.758 48.4329ZM301.78 34.7655C298.629 34.7655 297.608 37.042 297.371 39.8958L305.349 38.6844C305.381 36.4891 304.246 34.6842 301.813 34.6842L301.78 34.7655Z" fill="#003C7F"/>
<path d="M165.79 48.4327C165.841 48.4027 165.899 48.3868 165.958 48.3868C166.017 48.3868 166.075 48.4027 166.125 48.4327C166.154 48.4566 166.178 48.4863 166.195 48.5199C166.212 48.5535 166.222 48.5903 166.223 48.6279C166.235 48.8391 166.235 49.0508 166.223 49.262C166.223 52.9045 162.688 53.6444 159.822 53.6444C152.979 53.6444 147.909 49.1807 147.909 42.2129C147.909 35.8385 151.877 31.3749 158.328 31.3749C163.439 31.3749 167.015 34.5458 167.015 39.6355C167.015 40.1795 166.977 40.7229 166.901 41.2616L153.535 43.0991C154 47.018 156.637 49.6767 161.112 49.6767C162.75 49.7555 164.373 49.3358 165.766 48.4734L165.79 48.4327ZM157.813 34.7247C154.71 34.7247 153.682 36.9931 153.453 39.855L161.43 38.6354C161.43 36.489 160.32 34.684 157.838 34.684L157.813 34.7247Z" fill="#003C7F"/>
<path d="M292.219 49.1321C292.273 49.3997 292.298 49.6723 292.293 49.9452C292.293 52.7177 289.304 53.6608 287.026 53.6608C282.584 53.6608 279.792 51.0347 279.792 46.4978V35.9282H277.342V32.0092H279.792V27.8627H285.646V32.0092H291.419V35.8794H285.703V46.2946C285.703 48.4898 287.002 49.7744 289.28 49.7744C290.205 49.7999 291.114 49.5323 291.876 49.0102C291.914 48.9872 291.958 48.9751 292.003 48.9751C292.047 48.9751 292.091 48.9872 292.129 49.0102C292.172 49.0399 292.203 49.0827 292.219 49.1321Z" fill="#003C7F"/>
<path d="M199.357 49.1321C199.404 49.4006 199.426 49.6727 199.423 49.9452C199.423 52.7258 196.393 53.6608 194.148 53.6608C189.673 53.6608 186.922 51.0347 186.922 46.4978V35.9282H184.472V32.0092H186.922V27.8627H192.776V32.0092H198.549V35.8875H192.833V46.2946C192.833 48.4898 194.14 49.7825 196.377 49.7825C197.315 49.8078 198.237 49.5406 199.014 49.0183C199.051 48.9912 199.095 48.9766 199.141 48.9766C199.187 48.9766 199.231 48.9912 199.267 49.0183C199.308 49.0467 199.339 49.0862 199.357 49.1321Z" fill="#003C7F"/>
<path d="M311.505 34.7898C311.783 32.7328 313.563 31.6758 315.498 31.6758C317.825 31.6758 319.45 33.0824 319.45 35.5052V36.3183H319.572C321.32 33.8141 323.01 31.3831 326.186 31.3831C326.532 31.3866 326.877 31.4247 327.215 31.4969L326.905 37.1395C326.308 36.9501 325.685 36.8568 325.059 36.8631C322.977 36.8631 321.32 38.5867 319.776 40.1153V53.0265H313.93V36.6435C313.93 35.7817 313.653 34.806 312.599 34.806C312.317 34.8032 312.038 34.8644 311.783 34.9849C311.752 35.0062 311.715 35.0176 311.677 35.0176C311.639 35.0176 311.602 35.0062 311.571 34.9849C311.544 34.9602 311.525 34.9294 311.514 34.8954C311.502 34.8614 311.499 34.8251 311.505 34.7898Z" fill="#003C7F"/>
<path d="M349.743 49.9533C349.759 49.9429 349.778 49.936 349.797 49.9328C349.816 49.9297 349.836 49.9304 349.855 49.935C349.874 49.9395 349.892 49.9478 349.908 49.9593C349.923 49.9708 349.937 49.9853 349.947 50.002C349.968 50.0259 349.984 50.0545 349.993 50.0856C350.001 50.1167 350.002 50.1494 349.996 50.1809C349.808 51.9046 348.363 53.3193 346.036 53.3193C343.284 53.3193 341.79 51.555 341.79 48.6199V38.8632C341.824 38.5727 341.795 38.2782 341.704 37.9998C341.614 37.7214 341.465 37.4656 341.267 37.2497C341.068 37.0338 340.826 36.8628 340.555 36.7484C340.285 36.6341 339.993 36.5789 339.699 36.5867C337.576 36.5867 335.731 38.6681 334.515 39.9121V53.0266H328.619V32.0092H334.4V36.0013H334.531C336.891 33.4564 339.43 31.3832 342.827 31.3832C344.014 31.377 345.168 31.779 346.093 32.5214C347.546 33.7329 347.726 35.5704 347.726 37.3997V48.3597C347.726 49.376 348.036 50.2378 348.983 50.2378C349.261 50.2304 349.529 50.1302 349.743 49.9533Z" fill="#003C7F"/>
<path d="M261.567 48.6198C263.06 49.4624 264.751 49.8945 266.466 49.8719C268.41 49.8719 269.961 49.2134 269.961 47.5629C269.961 46.1563 268.573 45.4896 266.54 44.5139C263.788 43.0992 261.469 41.652 261.469 38.0908C261.469 34.8386 264.18 31.4401 270.394 31.4401C271.943 31.4406 273.489 31.5712 275.015 31.8303L274.321 35.8224C273.061 35.4404 271.752 35.2432 270.435 35.237C268.287 35.237 267.128 36.0988 267.128 37.3103C267.128 38.5217 268.696 39.3836 270.663 40.3592C273.301 41.652 275.856 43.1399 275.856 46.7417C275.856 49.5955 273.66 53.6282 267.087 53.6282C263.315 53.6282 261.118 52.2217 261.118 49.441C261.106 49.2271 261.106 49.0126 261.118 48.7987C261.124 48.7575 261.14 48.7183 261.164 48.6843C261.188 48.6504 261.22 48.6227 261.257 48.6036C261.305 48.5752 261.359 48.5615 261.415 48.5644C261.47 48.5673 261.523 48.5866 261.567 48.6198Z" fill="#003C7F"/>
<path d="M168.705 48.6197C170.194 49.473 171.888 49.906 173.605 49.8718C175.532 49.8718 177.058 49.2051 177.058 47.5627C177.058 46.1561 175.687 45.4894 173.678 44.5138C170.894 43.099 168.607 41.6518 168.607 38.0907C168.607 34.8384 171.286 31.4399 177.491 31.4399C179.045 31.4372 180.597 31.5678 182.129 31.8301L181.459 35.8222C180.187 35.4326 178.863 35.2353 177.532 35.2368C175.409 35.2368 174.266 36.0499 174.266 37.3101C174.266 38.5703 175.801 39.3834 177.769 40.359C180.439 41.6518 182.954 43.1397 182.954 46.7415C182.954 49.5953 180.798 53.6281 174.233 53.6281C170.42 53.6281 168.256 52.2215 168.256 49.4408C168.244 49.2269 168.244 49.0125 168.256 48.7985C168.263 48.7575 168.279 48.7186 168.303 48.6847C168.327 48.6509 168.358 48.623 168.395 48.6034C168.443 48.577 168.498 48.5645 168.553 48.5674C168.608 48.5703 168.66 48.5884 168.705 48.6197Z" fill="#003C7F"/>
<path d="M258.693 48.4329C258.738 48.4028 258.79 48.3867 258.844 48.3867C258.898 48.3867 258.951 48.4028 258.995 48.4329C259.023 48.4572 259.046 48.4871 259.061 48.5208C259.077 48.5544 259.085 48.591 259.085 48.628C259.101 48.8391 259.101 49.0511 259.085 49.2622C259.085 52.9046 255.566 53.6445 252.675 53.6445C245.882 53.6445 240.771 49.189 240.771 42.2618C240.771 35.8793 244.78 31.4157 251.222 31.4157C256.333 31.4157 259.869 34.5866 259.869 39.6763C259.869 40.2203 259.83 40.7636 259.755 41.3024L246.388 43.1399C246.862 47.0588 249.532 49.7175 253.974 49.7175C255.623 49.8024 257.258 49.3825 258.661 48.5141L258.693 48.4329ZM250.716 34.7655C247.572 34.7655 246.552 37.042 246.315 39.8958L254.292 38.6844C254.325 36.4891 253.182 34.6842 250.749 34.6842L250.716 34.7655Z" fill="#003C7F"/>
<path d="M132.036 53.4006C129.333 53.3965 126.636 53.1516 123.977 52.6688H123.814V25.8381H123.977C126.975 25.3018 130.011 25.0054 133.056 24.9519C136.421 24.9519 138.494 25.3178 140.552 26.2528C141.65 26.7369 142.583 27.5277 143.238 28.5293C143.756 29.3364 144.039 30.271 144.055 31.2287C144.051 32.3061 143.721 33.3573 143.108 34.2451C142.29 35.4274 141.159 36.3616 139.842 36.9444C140.766 37.17 141.655 37.5173 142.487 37.977C143.783 38.6443 144.838 39.6954 145.508 40.9853C146.093 42.256 146.305 43.6651 146.121 45.0505C145.923 46.5249 145.349 47.9243 144.454 49.1155C143.56 50.3067 142.374 51.25 141.009 51.8558C139.062 52.7265 136.969 53.2283 134.836 53.3355C133.946 53.3681 132.991 53.4006 132.036 53.4006ZM130.231 49.2865C131.016 49.422 131.811 49.49 132.607 49.4898C134.069 49.581 135.526 49.2507 136.804 48.5385C137.649 48.0457 138.326 47.3122 138.748 46.4327C139.192 45.4985 139.373 44.4613 139.27 43.4326C139.09 41.5219 137.833 40.1804 135.743 39.5462C134.965 39.3427 134.163 39.2443 133.359 39.2535C132.304 39.2631 131.254 39.3996 130.231 39.66V49.2865ZM130.231 28.7001V37.1152C133.244 36.8631 134.739 36.3021 135.947 35.4891C136.534 35.1469 137.03 34.669 137.392 34.0959C137.754 33.5227 137.973 32.8712 138.029 32.1962C138.072 31.4739 137.839 30.7621 137.376 30.2042C136.699 29.4714 135.797 28.9825 134.812 28.8139C134.006 28.6493 133.185 28.573 132.362 28.5863C131.65 28.5824 130.939 28.6204 130.231 28.7001Z" fill="#003C7F"/>
<path d="M231.25 29.1065C231.589 28.948 231.967 28.8942 232.336 28.952C233.773 29.1634 234.516 31.7083 234.369 35.9524C234.259 38.6302 233.761 41.2782 232.891 43.8146C232.527 44.9218 231.975 45.9586 231.258 46.8798C231.018 47.2283 230.701 47.5182 230.332 47.728C229.963 47.9377 229.551 48.0619 229.127 48.0913H229.029C228.843 48.0949 228.657 48.0785 228.474 48.0425L225.118 25.399H218.496L221.036 40.3998C220.803 42.0295 220.353 43.6209 219.697 45.1318C218.88 46.7985 217.941 47.7416 216.782 47.9286C216.541 47.962 216.298 47.9783 216.055 47.9774H215.728L212.405 25.4153H205.767L210.348 53.059H210.47C211.333 53.27 212.219 53.3764 213.107 53.3761C213.813 53.3789 214.516 53.3053 215.206 53.1566C216.973 52.7264 218.556 51.7433 219.721 50.3515C220.737 49.1357 221.508 47.736 221.991 46.2294L223.118 53.0346H223.24C224.209 53.2573 225.202 53.3638 226.196 53.3517H226.972C228.634 53.3312 230.259 52.8619 231.675 51.9939C233.083 51.0958 234.271 49.8958 235.153 48.4815C236.677 46.1218 237.761 43.5081 238.354 40.7656C238.994 38.0446 239.318 35.2592 239.317 32.4644C239.409 30.6005 239.045 28.7423 238.256 27.0495C237.923 26.3698 237.402 25.7994 236.754 25.4059C236.105 25.0125 235.357 24.8126 234.598 24.8299C233.698 24.847 232.838 25.2012 232.189 25.8218C231.784 26.2164 231.462 26.6883 231.243 27.2093C231.024 27.7303 230.913 28.2897 230.915 28.8544C230.914 28.8929 230.921 28.9312 230.937 28.9665C230.952 29.0017 230.976 29.0329 231.005 29.0577C231.039 29.0856 231.079 29.1046 231.122 29.1131C231.164 29.1217 231.209 29.1194 231.25 29.1065Z" fill="#003C7F"/>
<path d="M163.145 79.5888V72.6617H156.531V79.6214H153.053V64.4173H156.531V70.2631H163.153V64.4173H166.648V79.5888H163.145Z" fill="#003C7F"/>
<path d="M174.862 79.9793C171.155 79.9793 169.253 77.1824 169.253 73.7025C169.253 70.0519 171.588 67.7347 175.229 67.7347C178.724 67.7347 180.757 69.8812 180.757 73.4261C180.757 76.971 178.659 79.9793 174.862 79.9793ZM174.976 69.8161C173.008 69.8161 172.6 71.8569 172.6 73.3854C172.6 74.914 172.919 77.8979 175.05 77.8979C176.969 77.8979 177.401 75.3774 177.401 73.7675C177.401 72.1577 177.042 69.8324 174.976 69.8324V69.8161Z" fill="#003C7F"/>
<path d="M285.54 79.9793C281.833 79.9793 279.931 77.1824 279.931 73.7025C279.931 70.0519 282.266 67.7347 285.908 67.7347C289.402 67.7347 291.435 69.8812 291.435 73.4261C291.435 76.971 289.304 79.9793 285.54 79.9793ZM285.654 69.8161C283.687 69.8161 283.278 71.8569 283.278 73.3854C283.278 74.914 283.605 77.8979 285.728 77.8979C287.647 77.8979 288.079 75.3774 288.079 73.7675C288.079 72.1577 287.688 69.8324 285.622 69.8324L285.654 69.8161Z" fill="#003C7F"/>
<path d="M200.623 77.1009C200.647 77.0837 200.675 77.0745 200.705 77.0745C200.734 77.0745 200.762 77.0837 200.786 77.1009C200.803 77.1105 200.817 77.1249 200.826 77.1423C200.834 77.1596 200.838 77.1792 200.835 77.1985C200.843 77.3176 200.843 77.4371 200.835 77.5562C200.835 79.5319 198.916 79.9385 197.34 79.9385C193.634 79.9385 190.849 77.4993 190.849 73.7105C190.849 70.2225 193.029 67.7752 196.565 67.7752C199.349 67.7752 201.292 69.5152 201.292 72.2877C201.295 72.5844 201.273 72.8808 201.227 73.1739L193.936 74.1821C193.97 74.6886 194.104 75.1834 194.331 75.6381C194.558 76.0928 194.873 76.4983 195.257 76.8315C195.642 77.1647 196.089 77.4189 196.572 77.5796C197.056 77.7402 197.567 77.8041 198.075 77.7676C198.975 77.8126 199.866 77.5828 200.631 77.1091L200.623 77.1009ZM196.287 69.6046C194.581 69.6046 194.025 70.8486 193.895 72.3934L198.255 71.7348C198.287 71.4622 198.259 71.1861 198.174 70.925C198.09 70.6639 197.95 70.424 197.764 70.2213C197.578 70.0187 197.351 69.858 197.098 69.7502C196.844 69.6424 196.571 69.59 196.295 69.5965L196.287 69.6046Z" fill="#003C7F"/>
<path d="M268.271 77.1009C268.295 77.0837 268.323 77.0745 268.352 77.0745C268.382 77.0745 268.41 77.0837 268.434 77.1009C268.451 77.1105 268.465 77.1249 268.474 77.1423C268.482 77.1596 268.486 77.1792 268.483 77.1985C268.491 77.3176 268.491 77.4371 268.483 77.5562C268.483 79.5319 266.564 79.9385 264.988 79.9385C261.282 79.9385 258.456 77.4993 258.456 73.7105C258.456 70.2225 260.636 67.7752 264.172 67.7752C266.948 67.7752 268.891 69.5152 268.891 72.2877C268.894 72.5844 268.872 72.8808 268.826 73.1739L261.535 74.1821C261.569 74.6886 261.703 75.1834 261.93 75.6381C262.157 76.0928 262.471 76.4983 262.856 76.8315C263.241 77.1647 263.688 77.4189 264.171 77.5796C264.655 77.7402 265.166 77.8041 265.674 77.7676C266.574 77.8126 267.465 77.5828 268.23 77.1091L268.271 77.1009ZM263.886 69.6046C262.18 69.6046 261.624 70.8486 261.494 72.3934L265.846 71.7348C265.878 71.4654 265.853 71.1923 265.771 70.9335C265.689 70.6748 265.553 70.4363 265.371 70.234C265.19 70.0317 264.967 69.8702 264.718 69.7603C264.469 69.6504 264.199 69.5945 263.927 69.5965L263.886 69.6046Z" fill="#003C7F"/>
<path d="M190.278 77.483C190.305 77.6251 190.319 77.7693 190.318 77.9139C190.318 79.41 188.685 79.9303 187.444 79.9303C186.916 79.9788 186.383 79.911 185.883 79.7319C185.384 79.5527 184.93 79.2665 184.554 78.8935C184.178 78.5205 183.888 78.0697 183.706 77.5731C183.524 77.0765 183.454 76.5462 183.501 76.0195V70.2225H182.162V68.1085H183.476V65.8564H186.669V68.1085H189.812V70.2225H186.742V75.9138C186.718 76.1729 186.751 76.4342 186.841 76.6788C186.93 76.9233 187.073 77.1451 187.259 77.3279C187.445 77.5108 187.669 77.6502 187.916 77.7361C188.163 77.8219 188.426 77.8522 188.685 77.8245C189.195 77.8381 189.695 77.6901 190.114 77.4017C190.135 77.3877 190.159 77.3802 190.184 77.3802C190.208 77.3802 190.233 77.3877 190.253 77.4017C190.271 77.4247 190.28 77.4538 190.278 77.483Z" fill="#003C7F"/>
<path d="M310.681 77.483C310.708 77.6251 310.722 77.7693 310.721 77.9139C310.721 79.41 309.088 79.9303 307.847 79.9303C307.319 79.9788 306.786 79.911 306.286 79.7319C305.787 79.5527 305.333 79.2665 304.957 78.8935C304.581 78.5205 304.291 78.0697 304.109 77.5731C303.927 77.0765 303.857 76.5462 303.904 76.0195V70.2225H302.564V68.1085H303.904V65.8564H307.096V68.1085H310.24V70.2225H307.112V75.9138C307.088 76.1729 307.122 76.4342 307.211 76.6788C307.3 76.9233 307.443 77.1451 307.629 77.3279C307.815 77.5108 308.04 77.6502 308.286 77.7361C308.533 77.8219 308.796 77.8522 309.056 77.8245C309.565 77.8381 310.065 77.6901 310.485 77.4017C310.505 77.3877 310.529 77.3802 310.554 77.3802C310.579 77.3802 310.603 77.3877 310.623 77.4017C310.639 77.4089 310.653 77.4203 310.663 77.4346C310.673 77.4489 310.679 77.4656 310.681 77.483Z" fill="#003C7F"/>
<path d="M292.831 69.6534C292.908 69.1469 293.175 68.6882 293.578 68.3699C293.981 68.0515 294.491 67.8971 295.003 67.9379C295.289 67.9139 295.577 67.9515 295.846 68.0483C296.116 68.145 296.362 68.2986 296.566 68.4986C296.771 68.6985 296.93 68.94 297.032 69.2066C297.134 69.4733 297.178 69.7588 297.159 70.0437V70.4746H297.224C298.18 69.1005 299.102 67.7671 300.833 67.7671C301.02 67.7701 301.206 67.7919 301.389 67.8322L301.217 70.9299C300.899 70.8213 300.565 70.769 300.229 70.7754C299.086 70.7754 298.18 71.7023 297.33 72.5397V79.5889H294.146V70.6453C294.146 70.1737 293.991 69.6371 293.428 69.6371C293.273 69.6374 293.119 69.6706 292.978 69.7347C292.962 69.7466 292.942 69.753 292.921 69.753C292.901 69.753 292.881 69.7466 292.864 69.7347C292.854 69.724 292.845 69.7113 292.84 69.6973C292.834 69.6834 292.831 69.6684 292.831 69.6534Z" fill="#003C7F"/>
<path d="M209.155 77.1985C209.97 77.6695 210.9 77.9086 211.842 77.8896C212.895 77.8896 213.736 77.5238 213.736 76.6213C213.736 75.8489 212.985 75.483 211.883 74.9464C210.372 74.1902 209.123 73.4016 209.123 71.4421C209.123 69.7022 210.584 67.8159 213.973 67.8159C214.818 67.814 215.662 67.8847 216.496 68.0273L216.137 70.2225C215.442 70.0169 214.722 69.9102 213.997 69.9054C212.83 69.9054 212.201 70.377 212.201 71.0193C212.201 71.6617 213.017 72.1657 214.128 72.7024C215.573 73.4097 216.953 74.2228 216.953 76.1741C216.953 77.7514 215.761 79.9385 212.185 79.9385C210.111 79.9385 208.919 79.1661 208.919 77.662C208.91 77.5456 208.91 77.4288 208.919 77.3124C208.919 77.2885 208.926 77.2653 208.939 77.2452C208.952 77.2251 208.971 77.209 208.992 77.1985C209.016 77.1813 209.044 77.1721 209.074 77.1721C209.103 77.1721 209.132 77.1813 209.155 77.1985Z" fill="#003C7F"/>
<path d="M270.508 77.1986C271.32 77.6685 272.247 77.9076 273.186 77.8897C274.248 77.8897 275.089 77.5238 275.089 76.6213C275.089 75.8489 274.329 75.483 273.235 74.9464C271.716 74.1903 270.467 73.4016 270.467 71.4422C270.467 69.7022 271.937 67.816 275.325 67.816C276.171 67.8148 277.015 67.8855 277.849 68.0273L277.481 70.2144C276.787 70.0082 276.066 69.9014 275.342 69.8974C274.182 69.8974 273.554 70.3689 273.554 71.0112C273.554 71.6536 274.37 72.1576 275.472 72.6943C276.918 73.4016 278.298 74.2147 278.298 76.166C278.298 77.7433 277.114 79.9304 273.529 79.9304C271.463 79.9304 270.263 79.158 270.263 77.6539C270.255 77.5375 270.255 77.4207 270.263 77.3043C270.265 77.2808 270.273 77.2582 270.286 77.2384C270.299 77.2186 270.316 77.2021 270.337 77.1904C270.363 77.1748 270.393 77.1673 270.424 77.1687C270.454 77.1702 270.483 77.1805 270.508 77.1986Z" fill="#003C7F"/>
<path d="M311.668 77.1985C312.483 77.6695 313.413 77.9086 314.355 77.8896C315.408 77.8896 316.249 77.5238 316.249 76.6213C316.249 75.8489 315.49 75.483 314.396 74.9464C312.885 74.1902 311.636 73.4016 311.636 71.4421C311.636 69.7022 313.097 67.8159 316.486 67.8159C317.331 67.814 318.175 67.8847 319.009 68.0273L318.641 70.2144C317.95 70.0088 317.232 69.9021 316.51 69.8973C315.343 69.8973 314.714 70.3689 314.714 71.0112C314.714 71.6535 315.531 72.1576 316.641 72.6942C318.086 73.4016 319.466 74.2146 319.466 76.166C319.466 77.7433 318.274 79.9304 314.698 79.9304C312.624 79.9304 311.432 79.158 311.432 77.6539C311.424 77.5375 311.424 77.4206 311.432 77.3042C311.432 77.2804 311.439 77.2571 311.452 77.2371C311.465 77.217 311.484 77.2009 311.505 77.1904C311.53 77.1744 311.559 77.1665 311.588 77.168C311.617 77.1694 311.646 77.1801 311.668 77.1985Z" fill="#003C7F"/>
<path d="M258.13 77.8409C258.15 77.8315 258.173 77.8266 258.195 77.8266C258.218 77.8266 258.24 77.8315 258.26 77.8409C258.269 77.8572 258.273 77.8754 258.273 77.8938C258.273 77.9122 258.269 77.9303 258.26 77.9466C258.162 79.2069 257.027 79.7354 255.811 79.7354C252.684 79.7354 250.912 76.4831 249.81 73.0277C249.351 73.068 248.89 73.0843 248.43 73.0765V79.5809H244.951V64.5313C246.641 64.4418 248.299 64.3768 249.981 64.3768C252.765 64.3768 256.089 65.0679 256.129 68.4827C256.077 69.4037 255.744 70.2869 255.173 71.0136C254.602 71.7402 253.822 72.2757 252.937 72.548C254.064 74.6294 256.113 77.9385 257.624 77.9385C257.797 77.9383 257.969 77.9052 258.13 77.8409ZM249.614 66.2875C249.225 66.2904 248.837 66.3257 248.454 66.3932V71.1414C248.856 71.1833 249.259 71.205 249.663 71.2064C251.296 71.2064 252.594 70.4584 252.594 68.7673C252.594 67.0761 251.247 66.2875 249.614 66.2875Z" fill="#003C7F"/>
<path d="M232.826 71.2469C232.769 71.2469 232.736 71.2469 232.704 71.2469C232.689 71.2393 232.676 71.2276 232.667 71.2133C232.659 71.1989 232.654 71.1824 232.655 71.1656C232.624 71.0461 232.611 70.923 232.614 70.7998C232.624 70.5854 232.677 70.3752 232.77 70.1814C232.862 69.9875 232.992 69.8137 233.152 69.6701C233.312 69.5265 233.499 69.4159 233.703 69.3446C233.906 69.2734 234.121 69.2429 234.337 69.255C236.174 69.255 237.292 70.8811 237.292 72.7348C237.266 74.2627 236.686 75.7296 235.659 76.8651C236.721 77.7676 237.823 78.6864 238.925 79.5726H234.304C234.108 79.4181 233.487 78.8815 233.251 78.7595C231.955 79.5262 230.479 79.9411 228.972 79.9629C226.318 79.9629 223.624 78.2392 223.624 75.3854C223.611 74.5492 223.841 73.7272 224.286 73.0177C224.73 72.3083 225.371 71.7414 226.131 71.3851C225.447 70.5627 225.038 69.5477 224.963 68.4825C224.963 65.5393 227.723 64.214 230.27 64.214C231.267 64.2197 232.263 64.2903 233.251 64.4254L232.924 66.8646C232.231 66.6537 231.51 66.5468 230.785 66.5475C229.47 66.5475 228.392 67.2305 228.392 68.6289C228.392 70.4339 232.238 73.7837 234.157 75.4585C234.493 74.8545 234.665 74.1734 234.655 73.4828C234.655 72.2795 234.067 71.1819 233.185 71.1819C233.063 71.1854 232.942 71.2074 232.826 71.2469ZM227.151 72.873C226.685 73.3583 226.43 74.0068 226.441 74.678C226.502 75.5715 226.905 76.4076 227.568 77.013C228.23 77.6185 229.102 77.9469 230.001 77.9302C230.63 77.9392 231.25 77.7731 231.789 77.4505C230.139 76.0218 228.589 74.4815 227.151 72.8405V72.873Z" fill="#003C7F"/>
<path d="M207.653 77.9547C207.672 77.94 207.695 77.9317 207.72 77.931C207.744 77.9303 207.767 77.9372 207.787 77.9507C207.807 77.9643 207.822 77.9838 207.831 78.0064C207.839 78.029 207.839 78.0536 207.833 78.0767C207.756 78.5791 207.489 79.0333 207.087 79.3462C206.684 79.6591 206.177 79.807 205.669 79.7597C204.175 79.7597 203.358 78.7921 203.358 77.1986V63.4743H206.551V77.0278C206.551 77.5888 206.722 78.0442 207.261 78.0442C207.397 78.0473 207.532 78.0166 207.653 77.9547Z" fill="#003C7F"/>
<path d="M31.2865 41.2617C32.7999 41.5622 34.2608 42.0827 35.6221 42.8065C39.5496 44.9529 41.0193 48.3678 40.5865 52.4412C40.3066 54.454 39.5145 56.3622 38.2855 57.9845C37.0565 59.6067 35.4314 60.8891 33.5645 61.7099C30.8892 62.9216 28.0082 63.6195 25.0728 63.767C20.0321 64.0963 14.9698 63.8068 10 62.9051V25.9194C14.1698 25.1875 18.3901 24.777 22.6233 24.6917C26.9834 24.6917 29.9719 25.1308 32.9032 26.5048C36.3815 28.1309 37.5981 30.879 37.6308 33.18C37.6634 35.4809 36.3162 39.0665 31.2865 41.2617ZM22.0027 59.0025C24.0771 59.1223 26.1426 58.6483 27.9551 57.6365C29.1892 56.8822 30.1819 55.7932 30.8167 54.4972C31.4516 53.2012 31.7023 51.7519 31.5396 50.3191C31.262 47.3677 29.2697 45.4408 26.4119 44.6277C23.769 44.006 21.0096 44.0761 18.4019 44.831V58.6529C19.5879 58.8856 20.7939 59.0027 22.0027 59.0025ZM18.4019 41.7658C22.9009 41.4243 25.0075 40.5625 26.8038 39.3917C27.6619 38.8909 28.3855 38.1909 28.913 37.3514C29.4405 36.5118 29.7562 35.5576 29.8331 34.5703C29.9311 32.5539 28.7308 30.4481 25.1218 29.6188C22.9033 29.2077 20.6306 29.1775 18.4019 29.5294V41.7658ZM76.3334 29.9521C76.7881 29.814 77.2683 29.7807 77.7378 29.8546C80.122 30.253 81.0039 34.2288 80.7916 39.8714C80.5548 46.3758 77.9991 56.9455 73.2715 57.0186C72.8862 57.0439 72.4995 57.0027 72.1284 56.8967L67.4498 25.3828H58.7621L62.2078 46.0343C61.5791 50.1727 59.7582 56.1649 56.0758 56.791C55.4987 56.869 54.9137 56.869 54.3366 56.791L49.6743 25.3665H40.9866L47.3309 63.4174C49.445 63.9532 51.6542 64.0005 53.7895 63.5556C58.5416 62.5067 62.1833 57.8642 63.3672 52.9859L65.0819 63.4661C66.755 63.842 68.4726 63.9843 70.1851 63.8889C74.9617 63.8157 78.7585 61.2058 81.3876 57.2382C85.4702 51.1077 87.1032 42.2861 87.1032 35.0419C87.1032 29.1066 85.2906 24.6592 80.7997 24.6592C79.4948 24.7216 78.2636 25.28 77.3598 26.2193C76.456 27.1586 75.9483 28.4074 75.9415 29.7082C75.9338 29.7544 75.938 29.8017 75.9537 29.8458C75.9695 29.8899 75.9961 29.9293 76.0313 29.9603C76.0764 29.9877 76.1276 30.0036 76.1803 30.0064C76.233 30.0092 76.2857 29.999 76.3334 29.9765V29.9521Z" fill="#003C7F"/>
<path d="M105.761 11.5203C106.887 25.1877 107.394 35.668 107.394 44.4896C107.394 53.3112 106.879 63.7996 105.761 77.467C105.75 77.5978 105.691 77.72 105.594 77.8089C105.497 77.8979 105.37 77.9471 105.238 77.9467C105.107 77.9452 104.981 77.8954 104.884 77.8068C104.788 77.7182 104.728 77.5971 104.715 77.467C103.58 63.7752 103.082 53.2949 103.082 44.4896C103.082 35.6843 103.572 25.2121 104.715 11.5203C104.715 11.3823 104.77 11.25 104.868 11.1524C104.966 11.0548 105.099 11 105.238 11C105.377 11 105.509 11.0548 105.607 11.1524C105.705 11.25 105.761 11.3823 105.761 11.5203Z" fill="#003C7F"/>
</svg>
