<?xml version="1.0" encoding="utf-8"?>
<!-- Generator: Adobe Illustrator 27.9.0, SVG Export Plug-In . SVG Version: 6.00 Build 0)  -->
<svg version="1.1" id="Lager_1" xmlns="http://www.w3.org/2000/svg" xmlns:xlink="http://www.w3.org/1999/xlink" x="0px" y="0px"
	 viewBox="0 0 170.1 170.1" style="enable-background:new 0 0 170.1 170.1;" xml:space="preserve">
<style type="text/css">
	.st0{fill:#A41D23;}
	.st1{fill:#D40037;}
	.st2{fill:#E85261;}
</style>
<g>
	<path class="st0" d="M114.9,68L68.5,14c-3.1-3.6-7-5.5-11.7-5.8c-4.7-0.4-8.9,1-12.4,4.1L37.9,18c1.8-1.6,3.9-2.3,6.3-2.1
		c2.3,0.2,4.2,1.2,5.8,3l46.4,54c3.2,3.7,7.1,5.6,11.7,6c4.7,0.3,8.8-1.1,12.4-4.3l6.5-5.7c-1.8,1.6-3.9,2.3-6.2,2.2
		C118.5,70.8,116.5,69.8,114.9,68z"/>
	<path class="st0" d="M127.4,44.7c-1.8-0.1-3.4,0.4-4.8,1.6c-1.4,1.2-2.2,2.8-2.3,4.6c-0.1,1.8,0.5,3.4,1.6,4.7l4.3,5
		c1.2,1.4,1.8,3,1.6,4.9c-0.2,1.8-0.9,3.3-2.3,4.5l5-4.4c2.8-2.4,4.3-5.4,4.5-9c0.3-3.7-0.8-6.9-3.2-9.7
		C130.8,45.5,129.3,44.8,127.4,44.7z"/>
</g>
<path class="st1" d="M23.9,28.2c1.5-1.3,3.1-1.9,5-1.8c1.9,0.2,3.5,1,4.7,2.5l39,45.4c2.5,2.9,5.7,4.5,9.5,4.7
	c3.8,0.3,7.2-0.8,10-3.3c0,0-3.3-3.8-4.5-5.3L48.6,25c-2.6-3-5.7-4.6-9.5-4.8c-3.8-0.3-7.1,0.9-10.1,3.5L23.9,28.2z"/>
<path class="st2" d="M12,37.5c1.2-1.1,2.6-1.6,4.2-1.5c1.5,0.2,2.8,0.8,3.9,2.1L52,75.3c2.1,2.4,4.7,3.7,7.8,3.9
	c3.1,0.3,5.9-0.6,8.3-2.7c0,0-2.7-3.2-3.7-4.3L32.4,34.9c-2.1-2.4-4.7-3.8-7.8-4c-3.1-0.2-5.9,0.7-8.3,2.9L12,37.5z"/>
<g>
	<path class="st0" d="M42.9,98.5h1.4v13.6h6.9v1.3h-8.3V98.5z"/>
	<path class="st0" d="M56.6,98.5H58v14.9h-1.4V98.5z"/>
	<path class="st0" d="M77.3,112.4c-1.7,1-3.6,1.3-5.5,1.3c-4.5,0-7.7-3.3-7.7-7.8c0-4.5,3.2-7.8,7.7-7.8c2.2,0,4,0.7,5.4,2.1l-1,1.1
		c-0.9-1.1-2.7-1.8-4.4-1.8c-3.9,0-6.3,2.9-6.3,6.6c0,3.7,2.4,6.6,6.3,6.6c1.6,0,3-0.2,4.2-0.9v-5h-3.6v-1.3h5V112.4z"/>
	<path class="st0" d="M94.2,107.7c0,3.2-1.4,6.1-5.4,6.1c-4.1,0-5.4-2.9-5.4-6.1v-9.2h1.4v8.8c0,2.1,0.6,5.2,4,5.2c3.5,0,4-3,4-5.2
		v-8.8h1.4V107.7z"/>
	<path class="st0" d="M100.3,98.5h1.4v13.6h6.9v1.3h-8.3V98.5z"/>
	<path class="st0" d="M118.5,98.5h1.4l6.3,14.9h-1.6l-1.6-4h-7.9l-1.7,4H112L118.5,98.5z M119.2,100l-3.5,8.2h6.8L119.2,100z"/>
	<path class="st0" d="M6.7,122.5h1.4v6.6h8.3v-6.6h1.4v14.9h-1.4v-7.1H8.1v7.1H6.7V122.5z"/>
	<path class="st0" d="M31.1,122.1c4.5,0,7.7,3.3,7.7,7.8c0,4.5-3.2,7.8-7.7,7.8c-4.5,0-7.7-3.3-7.7-7.8
		C23.4,125.4,26.6,122.1,31.1,122.1z M31.1,136.5c3.9,0,6.3-2.9,6.3-6.6c0-3.7-2.4-6.6-6.3-6.6c-3.9,0-6.3,2.9-6.3,6.6
		C24.8,133.6,27.2,136.5,31.1,136.5z"/>
	<path class="st0" d="M45,134.6c0.7,1.2,1.9,1.9,3.4,1.9c1.9,0,3.3-1.1,3.3-2.9c0-4.2-7.7-1.7-7.7-7.4c0-2.6,2.3-4.1,4.8-4.1
		c1.6,0,3,0.5,4.1,1.9l-1.2,0.9c-0.7-1-1.6-1.5-2.9-1.5c-1.8,0-3.3,0.9-3.3,2.8c0,4.5,7.7,1.8,7.7,7.4c0,2.7-2.2,4.2-4.6,4.2
		c-2,0-3.7-0.6-4.8-2.2L45,134.6z"/>
	<path class="st0" d="M59.5,122.5h4.3c2.1,0,4.8,0.8,4.8,3.9c0,2.7-2.1,3.9-4.5,3.9h-3.2v7.1h-1.4V122.5z M60.8,129H64
		c1.6,0,3.2-0.7,3.2-2.6c0-1.9-1.6-2.7-3.2-2.7h-3.1V129z"/>
	<path class="st0" d="M74.7,122.5H76v14.9h-1.4V122.5z"/>
	<path class="st0" d="M86.6,123.7h-5.1v-1.3H93v1.3H88v13.6h-1.4V123.7z"/>
	<path class="st0" d="M102,122.5h1.4l6.3,14.9h-1.6l-1.6-4h-7.9l-1.7,4h-1.4L102,122.5z M102.6,124l-3.5,8.2h6.8L102.6,124z"/>
	<path class="st0" d="M115,122.5h1.4v13.6h6.9v1.3H115V122.5z"/>
	<path class="st0" d="M128.6,122.5h1.4v14.9h-1.4V122.5z"/>
	<path class="st0" d="M140.5,123.7h-5.1v-1.3H147v1.3h-5.1v13.6h-1.4V123.7z"/>
	<path class="st0" d="M155.7,131l-5.5-8.5h1.7l4.5,7.1l4.6-7.1h1.6l-5.5,8.5v6.4h-1.4V131z"/>
	<path class="st0" d="M56.4,160.4c-1.7,1-3.6,1.3-5.5,1.3c-4.5,0-7.7-3.3-7.7-7.8c0-4.5,3.2-7.8,7.7-7.8c2.2,0,4,0.7,5.4,2.1l-1,1.1
		c-0.9-1.1-2.7-1.8-4.4-1.8c-3.9,0-6.3,2.9-6.3,6.6c0,3.7,2.4,6.6,6.3,6.6c1.6,0,3-0.2,4.2-0.9v-5h-3.6v-1.3h5V160.4z"/>
	<path class="st0" d="M63.4,146.5h3.9c1.2,0,5.3,0,5.3,3.9c0,2.8-2.2,3.6-3.8,3.8l4.3,7.1h-1.6l-4.2-7.1h-2.6v7.1h-1.4V146.5z
		 M64.8,153h2.9c2.9,0,3.5-1.6,3.5-2.6c0-1-0.6-2.6-3.5-2.6h-2.9V153z"/>
	<path class="st0" d="M84.8,146.1c4.5,0,7.7,3.3,7.7,7.8c0,4.5-3.2,7.8-7.7,7.8c-4.5,0-7.7-3.3-7.7-7.8
		C77.2,149.4,80.3,146.1,84.8,146.1z M84.8,160.5c3.9,0,6.3-2.9,6.3-6.6c0-3.7-2.4-6.6-6.3-6.6c-3.9,0-6.3,2.9-6.3,6.6
		C78.5,157.6,81,160.5,84.8,160.5z"/>
	<path class="st0" d="M108.4,155.7c0,3.2-1.4,6.1-5.4,6.1c-4.1,0-5.4-2.9-5.4-6.1v-9.2H99v8.8c0,2.1,0.6,5.2,4,5.2c3.5,0,4-3,4-5.2
		v-8.8h1.4V155.7z"/>
	<path class="st0" d="M115.1,146.5h4.3c2.1,0,4.8,0.8,4.8,3.9c0,2.7-2.1,3.9-4.5,3.9h-3.2v7.1h-1.4V146.5z M116.5,153h3.2
		c1.6,0,3.2-0.7,3.2-2.6c0-1.9-1.6-2.7-3.2-2.7h-3.1V153z"/>
</g>
</svg>
