<?xml version="1.0" encoding="utf-8"?>
<!-- Generator: Adobe Illustrator 22.0.1, SVG Export Plug-In . SVG Version: 6.00 Build 0)  -->
<svg version="1.1" xmlns="http://www.w3.org/2000/svg" xmlns:xlink="http://www.w3.org/1999/xlink" x="0px" y="0px"
	 viewBox="0 0 254.7 103.3" style="enable-background:new 0 0 254.7 103.3;" xml:space="preserve">
<style type="text/css">
	.st0{display:none;}
	.st1{display:inline;}
	.st2{fill:#7D8881;}
	.st3{fill:#F5E7D8;}
	.st4{fill:#1A5931;}
	.st5{fill:#E59349;}
	.st6{fill:#D97144;}
	.st7{fill:#FFFFFF;}
	.st8{fill:#2B2523;}
	.st9{fill:#5F7577;}
	.st10{fill:#F5E8D9;}
	.st11{fill:#004F32;}
	.st12{fill:#F3A44C;}
	.st13{fill:#E66208;}
	.st14{fill:#4F6D5A;}
</style>
<g id="ovale_grey" class="st0">
	<g class="st1">
		<g>
			<path class="st2" d="M33.9,36.7C36.4,45,31.5,53.3,23,55.9L8,60.4l-15.6-51l15-4.6c8-2.4,16.4,1.5,18.8,9.3
				c1.4,4.7,0.1,9.4-2.9,12.8C28.3,28.2,32.3,31.5,33.9,36.7z M-0.1,13.2l5,16.5l9.4-2.9c4.8-1.5,7.6-6.1,6.1-10.9
				c-1.5-4.8-6.3-7.1-11.1-5.6L-0.1,13.2z M28.1,38.5c-1.6-5.3-6.8-7.7-12.1-6.1l-9.4,2.9l5.5,17.9l9.4-2.9
				C26.7,48.7,29.7,43.7,28.1,38.5z"/>
			<path class="st2" d="M74.6,36.8l1.1,5.8l-26.2,5.1L39.3-4.6l6-1.2l9.1,46.6L74.6,36.8z"/>
			<path class="st2" d="M78.6-10.8l6-0.9l7.5,52.2l-6,0.9L78.6-10.8z"/>
			<path class="st2" d="M150,33.3l7.6,8.8l-7.8-0.1l-4.7-5.3c-4.2,2.3-9.1,3.7-14.4,3.6c-15.8-0.1-28.4-12.6-28.3-28.1
				s13-27.8,28.8-27.7c15.8,0.1,28.4,12.6,28.3,28.1C159.5,20.9,155.9,28.3,150,33.3z M141.2,32.1l-11.9-13.7l7.8,0.1l9.1,10.4
				c4.5-3.9,7.2-9.7,7.2-16.3c0.1-12.4-9.5-22-22.1-22.1c-12.6-0.1-22.3,9.3-22.4,21.8c-0.1,12.4,9.5,22,22.1,22.1
				C134.6,34.4,138.1,33.6,141.2,32.1z"/>
			<path class="st2" d="M172.4,24.3l6.7-36.2l6,1.1l-6.7,36.2c-1.2,6.5,2.9,12.5,9.6,13.7c6.7,1.2,12.6-2.9,13.8-9.4l6.7-36.2l6,1.1
				l-6.7,36.2c-1.8,9.7-11,16-20.9,14.1C177,43.2,170.6,34.1,172.4,24.3z"/>
			<path class="st2" d="M239.4,7.2l-5.3,16.2l20.2,6.6l-1.8,5.6L232.3,29l-5.8,17.7l21,6.9l-1.8,5.6l-26.8-8.8l16.6-50.7l26.8,8.8
				l-1.8,5.6L239.4,7.2z"/>
		</g>
		<g>
			<path class="st2" d="M75.3,96.7c0,3.5-2.9,6.1-6.4,6.1h-7v-21h6.4c3.3,0,6.1,2.5,6.1,5.8c0,1.8-0.8,3.2-2.2,4.2
				C74.1,92.7,75.3,94.4,75.3,96.7z M64.6,84.3v6.3h3.7c1.8,0,3.3-1.3,3.3-3.1c0-1.9-1.5-3.2-3.3-3.2H64.6z M72.6,96.7
				c0-2-1.6-3.5-3.6-3.5h-4.4v6.9H69C71,100.1,72.6,98.7,72.6,96.7z"/>
			<path class="st2" d="M86.9,93v9.7h-2.7v-9.7l-6.8-11.3h3.1l5.1,8.5l5.1-8.5h3.1L86.9,93z"/>
			<path class="st2" d="M122.5,81.8v21.6h-0.1L108.9,88v14.7h-2.7V81.2h0.1l13.6,15.3V81.8H122.5z"/>
			<path class="st2" d="M127.4,92.2c0-6.1,5-11,11.2-11s11.2,4.9,11.2,11c0,6.1-5,11-11.2,11S127.4,98.3,127.4,92.2z M147.1,92.2
				c0-4.7-3.7-8.3-8.4-8.3c-4.8,0-8.4,3.6-8.4,8.3c0,4.7,3.7,8.3,8.4,8.3C143.4,100.6,147.1,96.9,147.1,92.2z"/>
			<path class="st2" d="M168.2,96.7c0,3.5-2.9,6.1-6.4,6.1h-7v-21h6.4c3.3,0,6.1,2.5,6.1,5.8c0,1.8-0.8,3.2-2.2,4.2
				C166.9,92.7,168.2,94.4,168.2,96.7z M157.5,84.3v6.3h3.8c1.8,0,3.3-1.3,3.3-3.1c0-1.9-1.5-3.2-3.3-3.2H157.5z M165.5,96.7
				c0-2-1.6-3.5-3.6-3.5h-4.4v6.9h4.4C163.9,100.1,165.5,98.7,165.5,96.7z"/>
			<path class="st2" d="M173.1,81.8h2.7v21h-2.7V81.8z"/>
			<path class="st2" d="M181.7,100.1h6.1c2,0,3.6-1.4,3.6-3.4c0-2-1.6-3.4-3.6-3.4H187c-3.4,0-6.1-2.5-6.1-5.8
				c0-3.3,2.7-5.8,6.1-5.8h5.9v2.6h-6c-1.9,0-3.3,1.3-3.3,3.2c0,1.9,1.4,3.1,3.3,3.1h0.8c3.5,0,6.3,2.6,6.3,6c0,3.4-2.8,6-6.3,6
				h-6.1V100.1z"/>
		</g>
	</g>
</g>
<g id="ovale_beige" class="st0">
	<g class="st1">
		<g>
			<path class="st3" d="M33.9,36.7C36.4,45,31.5,53.3,23,55.9L8,60.4l-15.6-51l15-4.6c8-2.4,16.4,1.5,18.8,9.3
				c1.4,4.7,0.1,9.4-2.9,12.8C28.3,28.2,32.3,31.5,33.9,36.7z M-0.1,13.2l5,16.5l9.4-2.9c4.8-1.5,7.6-6.1,6.1-10.9
				c-1.5-4.8-6.3-7.1-11.1-5.6L-0.1,13.2z M28.1,38.5c-1.6-5.3-6.8-7.7-12.1-6.1l-9.4,2.9l5.5,17.9l9.4-2.9
				C26.7,48.7,29.7,43.7,28.1,38.5z"/>
			<path class="st3" d="M74.6,36.8l1.1,5.8l-26.2,5.1L39.3-4.6l6-1.2l9.1,46.6L74.6,36.8z"/>
			<path class="st3" d="M78.6-10.8l6-0.9l7.5,52.2l-6,0.9L78.6-10.8z"/>
			<path class="st3" d="M150,33.3l7.6,8.8l-7.8-0.1l-4.7-5.3c-4.2,2.3-9.1,3.7-14.4,3.6c-15.8-0.1-28.4-12.6-28.3-28.1
				s13-27.8,28.8-27.7c15.8,0.1,28.4,12.6,28.3,28.1C159.5,20.9,155.9,28.3,150,33.3z M141.2,32.1l-11.9-13.7l7.8,0.1l9.1,10.4
				c4.5-3.9,7.2-9.7,7.2-16.3c0.1-12.4-9.5-22-22.1-22.1c-12.6-0.1-22.3,9.3-22.4,21.8c-0.1,12.4,9.5,22,22.1,22.1
				C134.6,34.4,138.1,33.6,141.2,32.1z"/>
			<path class="st3" d="M172.4,24.3l6.7-36.2l6,1.1l-6.7,36.2c-1.2,6.5,2.9,12.5,9.6,13.7c6.7,1.2,12.6-2.9,13.8-9.4l6.7-36.2l6,1.1
				l-6.7,36.2c-1.8,9.7-11,16-20.9,14.1C177,43.2,170.6,34.1,172.4,24.3z"/>
			<path class="st3" d="M239.4,7.2l-5.3,16.2l20.2,6.6l-1.8,5.6L232.3,29l-5.8,17.7l21,6.9l-1.8,5.6l-26.8-8.8l16.6-50.7l26.8,8.8
				l-1.8,5.6L239.4,7.2z"/>
		</g>
		<g>
			<path class="st3" d="M75.3,96.7c0,3.5-2.9,6.1-6.4,6.1h-7v-21h6.4c3.3,0,6.1,2.5,6.1,5.8c0,1.8-0.8,3.2-2.2,4.2
				C74.1,92.7,75.3,94.4,75.3,96.7z M64.6,84.3v6.3h3.7c1.8,0,3.3-1.3,3.3-3.1c0-1.9-1.5-3.2-3.3-3.2H64.6z M72.6,96.7
				c0-2-1.6-3.5-3.6-3.5h-4.4v6.9H69C71,100.1,72.6,98.7,72.6,96.7z"/>
			<path class="st3" d="M86.9,93v9.7h-2.7v-9.7l-6.8-11.3h3.1l5.1,8.5l5.1-8.5h3.1L86.9,93z"/>
			<path class="st3" d="M122.5,81.8v21.6h-0.1L108.9,88v14.7h-2.7V81.2h0.1l13.6,15.3V81.8H122.5z"/>
			<path class="st3" d="M127.4,92.2c0-6.1,5-11,11.2-11s11.2,4.9,11.2,11c0,6.1-5,11-11.2,11S127.4,98.3,127.4,92.2z M147.1,92.2
				c0-4.7-3.7-8.3-8.4-8.3c-4.8,0-8.4,3.6-8.4,8.3c0,4.7,3.7,8.3,8.4,8.3C143.4,100.6,147.1,96.9,147.1,92.2z"/>
			<path class="st3" d="M168.2,96.7c0,3.5-2.9,6.1-6.4,6.1h-7v-21h6.4c3.3,0,6.1,2.5,6.1,5.8c0,1.8-0.8,3.2-2.2,4.2
				C166.9,92.7,168.2,94.4,168.2,96.7z M157.5,84.3v6.3h3.8c1.8,0,3.3-1.3,3.3-3.1c0-1.9-1.5-3.2-3.3-3.2H157.5z M165.5,96.7
				c0-2-1.6-3.5-3.6-3.5h-4.4v6.9h4.4C163.9,100.1,165.5,98.7,165.5,96.7z"/>
			<path class="st3" d="M173.1,81.8h2.7v21h-2.7V81.8z"/>
			<path class="st3" d="M181.7,100.1h6.1c2,0,3.6-1.4,3.6-3.4c0-2-1.6-3.4-3.6-3.4H187c-3.4,0-6.1-2.5-6.1-5.8
				c0-3.3,2.7-5.8,6.1-5.8h5.9v2.6h-6c-1.9,0-3.3,1.3-3.3,3.2c0,1.9,1.4,3.1,3.3,3.1h0.8c3.5,0,6.3,2.6,6.3,6c0,3.4-2.8,6-6.3,6
				h-6.1V100.1z"/>
		</g>
	</g>
</g>
<g id="ovale_green" class="st0">
	<g class="st1">
		<g>
			<path class="st4" d="M33.9,36.7C36.4,45,31.5,53.3,23,55.9L8,60.4l-15.6-51l15-4.6c8-2.4,16.4,1.5,18.8,9.3
				c1.4,4.7,0.1,9.4-2.9,12.8C28.3,28.2,32.3,31.5,33.9,36.7z M-0.1,13.2l5,16.5l9.4-2.9c4.8-1.5,7.6-6.1,6.1-10.9
				c-1.5-4.8-6.3-7.1-11.1-5.6L-0.1,13.2z M28.1,38.5c-1.6-5.3-6.8-7.7-12.1-6.1l-9.4,2.9l5.5,17.9l9.4-2.9
				C26.7,48.7,29.7,43.7,28.1,38.5z"/>
			<path class="st4" d="M74.6,36.8l1.1,5.8l-26.2,5.1L39.3-4.6l6-1.2l9.1,46.6L74.6,36.8z"/>
			<path class="st4" d="M78.6-10.8l6-0.9l7.5,52.2l-6,0.9L78.6-10.8z"/>
			<path class="st4" d="M150,33.3l7.6,8.8l-7.8-0.1l-4.7-5.3c-4.2,2.3-9.1,3.7-14.4,3.6c-15.8-0.1-28.4-12.6-28.3-28.1
				s13-27.8,28.8-27.7c15.8,0.1,28.4,12.6,28.3,28.1C159.5,20.9,155.9,28.3,150,33.3z M141.2,32.1l-11.9-13.7l7.8,0.1l9.1,10.4
				c4.5-3.9,7.2-9.7,7.2-16.3c0.1-12.4-9.5-22-22.1-22.1c-12.6-0.1-22.3,9.3-22.4,21.8c-0.1,12.4,9.5,22,22.1,22.1
				C134.6,34.4,138.1,33.6,141.2,32.1z"/>
			<path class="st4" d="M172.4,24.3l6.7-36.2l6,1.1l-6.7,36.2c-1.2,6.5,2.9,12.5,9.6,13.7c6.7,1.2,12.6-2.9,13.8-9.4l6.7-36.2l6,1.1
				l-6.7,36.2c-1.8,9.7-11,16-20.9,14.1C177,43.2,170.6,34.1,172.4,24.3z"/>
			<path class="st4" d="M239.4,7.2l-5.3,16.2l20.2,6.6l-1.8,5.6L232.3,29l-5.8,17.7l21,6.9l-1.8,5.6l-26.8-8.8l16.6-50.7l26.8,8.8
				l-1.8,5.6L239.4,7.2z"/>
		</g>
		<g>
			<path class="st4" d="M75.3,96.7c0,3.5-2.9,6.1-6.4,6.1h-7v-21h6.4c3.3,0,6.1,2.5,6.1,5.8c0,1.8-0.8,3.2-2.2,4.2
				C74.1,92.7,75.3,94.4,75.3,96.7z M64.6,84.3v6.3h3.7c1.8,0,3.3-1.3,3.3-3.1c0-1.9-1.5-3.2-3.3-3.2H64.6z M72.6,96.7
				c0-2-1.6-3.5-3.6-3.5h-4.4v6.9H69C71,100.1,72.6,98.7,72.6,96.7z"/>
			<path class="st4" d="M86.9,93v9.7h-2.7v-9.7l-6.8-11.3h3.1l5.1,8.5l5.1-8.5h3.1L86.9,93z"/>
			<path class="st4" d="M122.5,81.8v21.6h-0.1L108.9,88v14.7h-2.7V81.2h0.1l13.6,15.3V81.8H122.5z"/>
			<path class="st4" d="M127.4,92.2c0-6.1,5-11,11.2-11s11.2,4.9,11.2,11c0,6.1-5,11-11.2,11S127.4,98.3,127.4,92.2z M147.1,92.2
				c0-4.7-3.7-8.3-8.4-8.3c-4.8,0-8.4,3.6-8.4,8.3c0,4.7,3.7,8.3,8.4,8.3C143.4,100.6,147.1,96.9,147.1,92.2z"/>
			<path class="st4" d="M168.2,96.7c0,3.5-2.9,6.1-6.4,6.1h-7v-21h6.4c3.3,0,6.1,2.5,6.1,5.8c0,1.8-0.8,3.2-2.2,4.2
				C166.9,92.7,168.2,94.4,168.2,96.7z M157.5,84.3v6.3h3.8c1.8,0,3.3-1.3,3.3-3.1c0-1.9-1.5-3.2-3.3-3.2H157.5z M165.5,96.7
				c0-2-1.6-3.5-3.6-3.5h-4.4v6.9h4.4C163.9,100.1,165.5,98.7,165.5,96.7z"/>
			<path class="st4" d="M173.1,81.8h2.7v21h-2.7V81.8z"/>
			<path class="st4" d="M181.7,100.1h6.1c2,0,3.6-1.4,3.6-3.4c0-2-1.6-3.4-3.6-3.4H187c-3.4,0-6.1-2.5-6.1-5.8
				c0-3.3,2.7-5.8,6.1-5.8h5.9v2.6h-6c-1.9,0-3.3,1.3-3.3,3.2c0,1.9,1.4,3.1,3.3,3.1h0.8c3.5,0,6.3,2.6,6.3,6c0,3.4-2.8,6-6.3,6
				h-6.1V100.1z"/>
		</g>
	</g>
</g>
<g id="ovale_orange_light" class="st0">
	<g class="st1">
		<g>
			<path class="st5" d="M33.9,36.7C36.4,45,31.5,53.3,23,55.9L8,60.4l-15.6-51l15-4.6c8-2.4,16.4,1.5,18.8,9.3
				c1.4,4.7,0.1,9.4-2.9,12.8C28.3,28.2,32.3,31.5,33.9,36.7z M-0.1,13.2l5,16.5l9.4-2.9c4.8-1.5,7.6-6.1,6.1-10.9
				c-1.5-4.8-6.3-7.1-11.1-5.6L-0.1,13.2z M28.1,38.5c-1.6-5.3-6.8-7.7-12.1-6.1l-9.4,2.9l5.5,17.9l9.4-2.9
				C26.7,48.7,29.7,43.7,28.1,38.5z"/>
			<path class="st5" d="M74.6,36.8l1.1,5.8l-26.2,5.1L39.3-4.6l6-1.2l9.1,46.6L74.6,36.8z"/>
			<path class="st5" d="M78.6-10.8l6-0.9l7.5,52.2l-6,0.9L78.6-10.8z"/>
			<path class="st5" d="M150,33.3l7.6,8.8l-7.8-0.1l-4.7-5.3c-4.2,2.3-9.1,3.7-14.4,3.6c-15.8-0.1-28.4-12.6-28.3-28.1
				s13-27.8,28.8-27.7c15.8,0.1,28.4,12.6,28.3,28.1C159.5,20.9,155.9,28.3,150,33.3z M141.2,32.1l-11.9-13.7l7.8,0.1l9.1,10.4
				c4.5-3.9,7.2-9.7,7.2-16.3c0.1-12.4-9.5-22-22.1-22.1c-12.6-0.1-22.3,9.3-22.4,21.8c-0.1,12.4,9.5,22,22.1,22.1
				C134.6,34.4,138.1,33.6,141.2,32.1z"/>
			<path class="st5" d="M172.4,24.3l6.7-36.2l6,1.1l-6.7,36.2c-1.2,6.5,2.9,12.5,9.6,13.7c6.7,1.2,12.6-2.9,13.8-9.4l6.7-36.2l6,1.1
				l-6.7,36.2c-1.8,9.7-11,16-20.9,14.1C177,43.2,170.6,34.1,172.4,24.3z"/>
			<path class="st5" d="M239.4,7.2l-5.3,16.2l20.2,6.6l-1.8,5.6L232.3,29l-5.8,17.7l21,6.9l-1.8,5.6l-26.8-8.8l16.6-50.7l26.8,8.8
				l-1.8,5.6L239.4,7.2z"/>
		</g>
		<g>
			<path class="st5" d="M75.3,96.7c0,3.5-2.9,6.1-6.4,6.1h-7v-21h6.4c3.3,0,6.1,2.5,6.1,5.8c0,1.8-0.8,3.2-2.2,4.2
				C74.1,92.7,75.3,94.4,75.3,96.7z M64.6,84.3v6.3h3.7c1.8,0,3.3-1.3,3.3-3.1c0-1.9-1.5-3.2-3.3-3.2H64.6z M72.6,96.7
				c0-2-1.6-3.5-3.6-3.5h-4.4v6.9H69C71,100.1,72.6,98.7,72.6,96.7z"/>
			<path class="st5" d="M86.9,93v9.7h-2.7v-9.7l-6.8-11.3h3.1l5.1,8.5l5.1-8.5h3.1L86.9,93z"/>
			<path class="st5" d="M122.5,81.8v21.6h-0.1L108.9,88v14.7h-2.7V81.2h0.1l13.6,15.3V81.8H122.5z"/>
			<path class="st5" d="M127.4,92.2c0-6.1,5-11,11.2-11s11.2,4.9,11.2,11c0,6.1-5,11-11.2,11S127.4,98.3,127.4,92.2z M147.1,92.2
				c0-4.7-3.7-8.3-8.4-8.3c-4.8,0-8.4,3.6-8.4,8.3c0,4.7,3.7,8.3,8.4,8.3C143.4,100.6,147.1,96.9,147.1,92.2z"/>
			<path class="st5" d="M168.2,96.7c0,3.5-2.9,6.1-6.4,6.1h-7v-21h6.4c3.3,0,6.1,2.5,6.1,5.8c0,1.8-0.8,3.2-2.2,4.2
				C166.9,92.7,168.2,94.4,168.2,96.7z M157.5,84.3v6.3h3.8c1.8,0,3.3-1.3,3.3-3.1c0-1.9-1.5-3.2-3.3-3.2H157.5z M165.5,96.7
				c0-2-1.6-3.5-3.6-3.5h-4.4v6.9h4.4C163.9,100.1,165.5,98.7,165.5,96.7z"/>
			<path class="st5" d="M173.1,81.8h2.7v21h-2.7V81.8z"/>
			<path class="st5" d="M181.7,100.1h6.1c2,0,3.6-1.4,3.6-3.4c0-2-1.6-3.4-3.6-3.4H187c-3.4,0-6.1-2.5-6.1-5.8
				c0-3.3,2.7-5.8,6.1-5.8h5.9v2.6h-6c-1.9,0-3.3,1.3-3.3,3.2c0,1.9,1.4,3.1,3.3,3.1h0.8c3.5,0,6.3,2.6,6.3,6c0,3.4-2.8,6-6.3,6
				h-6.1V100.1z"/>
		</g>
	</g>
</g>
<g id="ovale_orange_dark" class="st0">
	<g class="st1">
		<g>
			<path class="st6" d="M33.9,36.7C36.4,45,31.5,53.3,23,55.9L8,60.4l-15.6-51l15-4.6c8-2.4,16.4,1.5,18.8,9.3
				c1.4,4.7,0.1,9.4-2.9,12.8C28.3,28.2,32.3,31.5,33.9,36.7z M-0.1,13.2l5,16.5l9.4-2.9c4.8-1.5,7.6-6.1,6.1-10.9
				c-1.5-4.8-6.3-7.1-11.1-5.6L-0.1,13.2z M28.1,38.5c-1.6-5.3-6.8-7.7-12.1-6.1l-9.4,2.9l5.5,17.9l9.4-2.9
				C26.7,48.7,29.7,43.7,28.1,38.5z"/>
			<path class="st6" d="M74.6,36.8l1.1,5.8l-26.2,5.1L39.3-4.6l6-1.2l9.1,46.6L74.6,36.8z"/>
			<path class="st6" d="M78.6-10.8l6-0.9l7.5,52.2l-6,0.9L78.6-10.8z"/>
			<path class="st6" d="M150,33.3l7.6,8.8l-7.8-0.1l-4.7-5.3c-4.2,2.3-9.1,3.7-14.4,3.6c-15.8-0.1-28.4-12.6-28.3-28.1
				s13-27.8,28.8-27.7c15.8,0.1,28.4,12.6,28.3,28.1C159.5,20.9,155.9,28.3,150,33.3z M141.2,32.1l-11.9-13.7l7.8,0.1l9.1,10.4
				c4.5-3.9,7.2-9.7,7.2-16.3c0.1-12.4-9.5-22-22.1-22.1c-12.6-0.1-22.3,9.3-22.4,21.8c-0.1,12.4,9.5,22,22.1,22.1
				C134.6,34.4,138.1,33.6,141.2,32.1z"/>
			<path class="st6" d="M172.4,24.3l6.7-36.2l6,1.1l-6.7,36.2c-1.2,6.5,2.9,12.5,9.6,13.7c6.7,1.2,12.6-2.9,13.8-9.4l6.7-36.2l6,1.1
				l-6.7,36.2c-1.8,9.7-11,16-20.9,14.1C177,43.2,170.6,34.1,172.4,24.3z"/>
			<path class="st6" d="M239.4,7.2l-5.3,16.2l20.2,6.6l-1.8,5.6L232.3,29l-5.8,17.7l21,6.9l-1.8,5.6l-26.8-8.8l16.6-50.7l26.8,8.8
				l-1.8,5.6L239.4,7.2z"/>
		</g>
		<g>
			<path class="st6" d="M75.3,96.7c0,3.5-2.9,6.1-6.4,6.1h-7v-21h6.4c3.3,0,6.1,2.5,6.1,5.8c0,1.8-0.8,3.2-2.2,4.2
				C74.1,92.7,75.3,94.4,75.3,96.7z M64.6,84.3v6.3h3.7c1.8,0,3.3-1.3,3.3-3.1c0-1.9-1.5-3.2-3.3-3.2H64.6z M72.6,96.7
				c0-2-1.6-3.5-3.6-3.5h-4.4v6.9H69C71,100.1,72.6,98.7,72.6,96.7z"/>
			<path class="st6" d="M86.9,93v9.7h-2.7v-9.7l-6.8-11.3h3.1l5.1,8.5l5.1-8.5h3.1L86.9,93z"/>
			<path class="st6" d="M122.5,81.8v21.6h-0.1L108.9,88v14.7h-2.7V81.2h0.1l13.6,15.3V81.8H122.5z"/>
			<path class="st6" d="M127.4,92.2c0-6.1,5-11,11.2-11s11.2,4.9,11.2,11c0,6.1-5,11-11.2,11S127.4,98.3,127.4,92.2z M147.1,92.2
				c0-4.7-3.7-8.3-8.4-8.3c-4.8,0-8.4,3.6-8.4,8.3c0,4.7,3.7,8.3,8.4,8.3C143.4,100.6,147.1,96.9,147.1,92.2z"/>
			<path class="st6" d="M168.2,96.7c0,3.5-2.9,6.1-6.4,6.1h-7v-21h6.4c3.3,0,6.1,2.5,6.1,5.8c0,1.8-0.8,3.2-2.2,4.2
				C166.9,92.7,168.2,94.4,168.2,96.7z M157.5,84.3v6.3h3.8c1.8,0,3.3-1.3,3.3-3.1c0-1.9-1.5-3.2-3.3-3.2H157.5z M165.5,96.7
				c0-2-1.6-3.5-3.6-3.5h-4.4v6.9h4.4C163.9,100.1,165.5,98.7,165.5,96.7z"/>
			<path class="st6" d="M173.1,81.8h2.7v21h-2.7V81.8z"/>
			<path class="st6" d="M181.7,100.1h6.1c2,0,3.6-1.4,3.6-3.4c0-2-1.6-3.4-3.6-3.4H187c-3.4,0-6.1-2.5-6.1-5.8
				c0-3.3,2.7-5.8,6.1-5.8h5.9v2.6h-6c-1.9,0-3.3,1.3-3.3,3.2c0,1.9,1.4,3.1,3.3,3.1h0.8c3.5,0,6.3,2.6,6.3,6c0,3.4-2.8,6-6.3,6
				h-6.1V100.1z"/>
		</g>
	</g>
</g>
<g id="ovale_white" class="st0">
	<g class="st1">
		<g>
			<path class="st7" d="M33.9,36.7C36.4,45,31.5,53.3,23,55.9L8,60.4l-15.6-51l15-4.6c8-2.4,16.4,1.5,18.8,9.3
				c1.4,4.7,0.1,9.4-2.9,12.8C28.3,28.2,32.3,31.5,33.9,36.7z M-0.1,13.2l5,16.5l9.4-2.9c4.8-1.5,7.6-6.1,6.1-10.9
				c-1.5-4.8-6.3-7.1-11.1-5.6L-0.1,13.2z M28.1,38.5c-1.6-5.3-6.8-7.7-12.1-6.1l-9.4,2.9l5.5,17.9l9.4-2.9
				C26.7,48.7,29.7,43.7,28.1,38.5z"/>
			<path class="st7" d="M74.6,36.8l1.1,5.8l-26.2,5.1L39.3-4.6l6-1.2l9.1,46.6L74.6,36.8z"/>
			<path class="st7" d="M78.6-10.8l6-0.9l7.5,52.2l-6,0.9L78.6-10.8z"/>
			<path class="st7" d="M150,33.3l7.6,8.8l-7.8-0.1l-4.7-5.3c-4.2,2.3-9.1,3.7-14.4,3.6c-15.8-0.1-28.4-12.6-28.3-28.1
				s13-27.8,28.8-27.7c15.8,0.1,28.4,12.6,28.3,28.1C159.5,20.9,155.9,28.3,150,33.3z M141.2,32.1l-11.9-13.7l7.8,0.1l9.1,10.4
				c4.5-3.9,7.2-9.7,7.2-16.3c0.1-12.4-9.5-22-22.1-22.1c-12.6-0.1-22.3,9.3-22.4,21.8c-0.1,12.4,9.5,22,22.1,22.1
				C134.6,34.4,138.1,33.6,141.2,32.1z"/>
			<path class="st7" d="M172.4,24.3l6.7-36.2l6,1.1l-6.7,36.2c-1.2,6.5,2.9,12.5,9.6,13.7c6.7,1.2,12.6-2.9,13.8-9.4l6.7-36.2l6,1.1
				l-6.7,36.2c-1.8,9.7-11,16-20.9,14.1C177,43.2,170.6,34.1,172.4,24.3z"/>
			<path class="st7" d="M239.4,7.2l-5.3,16.2l20.2,6.6l-1.8,5.6L232.3,29l-5.8,17.7l21,6.9l-1.8,5.6l-26.8-8.8l16.6-50.7l26.8,8.8
				l-1.8,5.6L239.4,7.2z"/>
		</g>
		<g>
			<path class="st7" d="M75.3,96.7c0,3.5-2.9,6.1-6.4,6.1h-7v-21h6.4c3.3,0,6.1,2.5,6.1,5.8c0,1.8-0.8,3.2-2.2,4.2
				C74.1,92.7,75.3,94.4,75.3,96.7z M64.6,84.3v6.3h3.7c1.8,0,3.3-1.3,3.3-3.1c0-1.9-1.5-3.2-3.3-3.2H64.6z M72.6,96.7
				c0-2-1.6-3.5-3.6-3.5h-4.4v6.9H69C71,100.1,72.6,98.7,72.6,96.7z"/>
			<path class="st7" d="M86.9,93v9.7h-2.7v-9.7l-6.8-11.3h3.1l5.1,8.5l5.1-8.5h3.1L86.9,93z"/>
			<path class="st7" d="M122.5,81.8v21.6h-0.1L108.9,88v14.7h-2.7V81.2h0.1l13.6,15.3V81.8H122.5z"/>
			<path class="st7" d="M127.4,92.2c0-6.1,5-11,11.2-11s11.2,4.9,11.2,11c0,6.1-5,11-11.2,11S127.4,98.3,127.4,92.2z M147.1,92.2
				c0-4.7-3.7-8.3-8.4-8.3c-4.8,0-8.4,3.6-8.4,8.3c0,4.7,3.7,8.3,8.4,8.3C143.4,100.6,147.1,96.9,147.1,92.2z"/>
			<path class="st7" d="M168.2,96.7c0,3.5-2.9,6.1-6.4,6.1h-7v-21h6.4c3.3,0,6.1,2.5,6.1,5.8c0,1.8-0.8,3.2-2.2,4.2
				C166.9,92.7,168.2,94.4,168.2,96.7z M157.5,84.3v6.3h3.8c1.8,0,3.3-1.3,3.3-3.1c0-1.9-1.5-3.2-3.3-3.2H157.5z M165.5,96.7
				c0-2-1.6-3.5-3.6-3.5h-4.4v6.9h4.4C163.9,100.1,165.5,98.7,165.5,96.7z"/>
			<path class="st7" d="M173.1,81.8h2.7v21h-2.7V81.8z"/>
			<path class="st7" d="M181.7,100.1h6.1c2,0,3.6-1.4,3.6-3.4c0-2-1.6-3.4-3.6-3.4H187c-3.4,0-6.1-2.5-6.1-5.8
				c0-3.3,2.7-5.8,6.1-5.8h5.9v2.6h-6c-1.9,0-3.3,1.3-3.3,3.2c0,1.9,1.4,3.1,3.3,3.1h0.8c3.5,0,6.3,2.6,6.3,6c0,3.4-2.8,6-6.3,6
				h-6.1V100.1z"/>
		</g>
	</g>
</g>
<g id="ovale_black" class="st0">
	<g class="st1">
		<g>
			<path class="st8" d="M33.9,36.7C36.4,45,31.5,53.3,23,55.9L8,60.4l-15.6-51l15-4.6c8-2.4,16.4,1.5,18.8,9.3
				c1.4,4.7,0.1,9.4-2.9,12.8C28.3,28.2,32.3,31.5,33.9,36.7z M-0.1,13.2l5,16.5l9.4-2.9c4.8-1.5,7.6-6.1,6.1-10.9
				c-1.5-4.8-6.3-7.1-11.1-5.6L-0.1,13.2z M28.1,38.5c-1.6-5.3-6.8-7.7-12.1-6.1l-9.4,2.9l5.5,17.9l9.4-2.9
				C26.7,48.7,29.7,43.7,28.1,38.5z"/>
			<path class="st8" d="M74.6,36.8l1.1,5.8l-26.2,5.1L39.3-4.6l6-1.2l9.1,46.6L74.6,36.8z"/>
			<path class="st8" d="M78.6-10.8l6-0.9l7.5,52.2l-6,0.9L78.6-10.8z"/>
			<path class="st8" d="M150,33.3l7.6,8.8l-7.8-0.1l-4.7-5.3c-4.2,2.3-9.1,3.7-14.4,3.6c-15.8-0.1-28.4-12.6-28.3-28.1
				s13-27.8,28.8-27.7c15.8,0.1,28.4,12.6,28.3,28.1C159.5,20.9,155.9,28.3,150,33.3z M141.2,32.1l-11.9-13.7l7.8,0.1l9.1,10.4
				c4.5-3.9,7.2-9.7,7.2-16.3c0.1-12.4-9.5-22-22.1-22.1c-12.6-0.1-22.3,9.3-22.4,21.8c-0.1,12.4,9.5,22,22.1,22.1
				C134.6,34.4,138.1,33.6,141.2,32.1z"/>
			<path class="st8" d="M172.4,24.3l6.7-36.2l6,1.1l-6.7,36.2c-1.2,6.5,2.9,12.5,9.6,13.7c6.7,1.2,12.6-2.9,13.8-9.4l6.7-36.2l6,1.1
				l-6.7,36.2c-1.8,9.7-11,16-20.9,14.1C177,43.2,170.6,34.1,172.4,24.3z"/>
			<path class="st8" d="M239.4,7.2l-5.3,16.2l20.2,6.6l-1.8,5.6L232.3,29l-5.8,17.7l21,6.9l-1.8,5.6l-26.8-8.8l16.6-50.7l26.8,8.8
				l-1.8,5.6L239.4,7.2z"/>
		</g>
		<g>
			<path class="st8" d="M75.3,96.7c0,3.5-2.9,6.1-6.4,6.1h-7v-21h6.4c3.3,0,6.1,2.5,6.1,5.8c0,1.8-0.8,3.2-2.2,4.2
				C74.1,92.7,75.3,94.4,75.3,96.7z M64.6,84.3v6.3h3.7c1.8,0,3.3-1.3,3.3-3.1c0-1.9-1.5-3.2-3.3-3.2H64.6z M72.6,96.7
				c0-2-1.6-3.5-3.6-3.5h-4.4v6.9H69C71,100.1,72.6,98.7,72.6,96.7z"/>
			<path class="st8" d="M86.9,93v9.7h-2.7v-9.7l-6.8-11.3h3.1l5.1,8.5l5.1-8.5h3.1L86.9,93z"/>
			<path class="st8" d="M122.5,81.8v21.6h-0.1L108.9,88v14.7h-2.7V81.2h0.1l13.6,15.3V81.8H122.5z"/>
			<path class="st8" d="M127.4,92.2c0-6.1,5-11,11.2-11s11.2,4.9,11.2,11c0,6.1-5,11-11.2,11S127.4,98.3,127.4,92.2z M147.1,92.2
				c0-4.7-3.7-8.3-8.4-8.3c-4.8,0-8.4,3.6-8.4,8.3c0,4.7,3.7,8.3,8.4,8.3C143.4,100.6,147.1,96.9,147.1,92.2z"/>
			<path class="st8" d="M168.2,96.7c0,3.5-2.9,6.1-6.4,6.1h-7v-21h6.4c3.3,0,6.1,2.5,6.1,5.8c0,1.8-0.8,3.2-2.2,4.2
				C166.9,92.7,168.2,94.4,168.2,96.7z M157.5,84.3v6.3h3.8c1.8,0,3.3-1.3,3.3-3.1c0-1.9-1.5-3.2-3.3-3.2H157.5z M165.5,96.7
				c0-2-1.6-3.5-3.6-3.5h-4.4v6.9h4.4C163.9,100.1,165.5,98.7,165.5,96.7z"/>
			<path class="st8" d="M173.1,81.8h2.7v21h-2.7V81.8z"/>
			<path class="st8" d="M181.7,100.1h6.1c2,0,3.6-1.4,3.6-3.4c0-2-1.6-3.4-3.6-3.4H187c-3.4,0-6.1-2.5-6.1-5.8
				c0-3.3,2.7-5.8,6.1-5.8h5.9v2.6h-6c-1.9,0-3.3,1.3-3.3,3.2c0,1.9,1.4,3.1,3.3,3.1h0.8c3.5,0,6.3,2.6,6.3,6c0,3.4-2.8,6-6.3,6
				h-6.1V100.1z"/>
		</g>
	</g>
</g>
<g id="ovale_grey_copy" class="st0">
	<g class="st1">
		<path class="st9" d="M33.9,59.8C36.4,68.1,31.5,76.4,23,79L8,83.5l-15.6-51l15-4.6c8-2.4,16.4,1.5,18.8,9.3
			c1.4,4.7,0.1,9.4-2.9,12.8C28.3,51.3,32.3,54.6,33.9,59.8z M-0.1,36.3l5,16.5l9.4-2.9c4.8-1.5,7.6-6.1,6.1-10.9
			c-1.5-4.8-6.3-7.1-11.1-5.6L-0.1,36.3z M28.1,61.5c-1.6-5.3-6.8-7.7-12.1-6.1l-9.4,2.9l5.5,17.9l9.4-2.9
			C26.7,71.8,29.7,66.8,28.1,61.5z"/>
		<path class="st9" d="M74.6,59.9l1.1,5.8l-26.2,5.1L39.3,18.5l6-1.2l9.1,46.6L74.6,59.9z"/>
		<path class="st9" d="M78.6,12.3l6-0.9l7.5,52.2l-6,0.9L78.6,12.3z"/>
		<path class="st9" d="M150,56.4l7.6,8.8l-7.8-0.1l-4.7-5.3c-4.2,2.3-9.1,3.7-14.4,3.6c-15.8-0.1-28.4-12.6-28.3-28.1
			s13-27.8,28.8-27.7c15.8,0.1,28.4,12.6,28.3,28.1C159.5,44,155.9,51.4,150,56.4z M141.2,55.2l-11.9-13.7l7.8,0.1l9.1,10.4
			c4.5-3.9,7.2-9.7,7.2-16.3c0.1-12.4-9.5-22-22.1-22.1c-12.6-0.1-22.3,9.3-22.4,21.8c-0.1,12.4,9.5,22,22.1,22.1
			C134.6,57.5,138.1,56.7,141.2,55.2z"/>
		<path class="st9" d="M172.4,47.4l6.7-36.2l6,1.1l-6.7,36.2c-1.2,6.5,2.9,12.5,9.6,13.7c6.7,1.2,12.6-2.9,13.8-9.4l6.7-36.2l6,1.1
			L207.8,54c-1.8,9.7-11,16-20.9,14.1C177,66.3,170.6,57.2,172.4,47.4z"/>
		<path class="st9" d="M239.4,30.3l-5.3,16.2l20.2,6.6l-1.8,5.6l-20.2-6.6l-5.8,17.7l21,6.9l-1.8,5.6l-26.8-8.8l16.6-50.7l26.8,8.8
			l-1.8,5.6L239.4,30.3z"/>
	</g>
</g>
<g id="ovale_beige_copy" class="st0">
	<g class="st1">
		<path class="st10" d="M33.9,59.8C36.4,68.1,31.5,76.4,23,79L8,83.5l-15.6-51l15-4.6c8-2.4,16.4,1.5,18.8,9.3
			c1.4,4.7,0.1,9.4-2.9,12.8C28.3,51.3,32.3,54.6,33.9,59.8z M-0.1,36.3l5,16.5l9.4-2.9c4.8-1.5,7.6-6.1,6.1-10.9
			c-1.5-4.8-6.3-7.1-11.1-5.6L-0.1,36.3z M28.1,61.5c-1.6-5.3-6.8-7.7-12.1-6.1l-9.4,2.9l5.5,17.9l9.4-2.9
			C26.7,71.8,29.7,66.8,28.1,61.5z"/>
		<path class="st10" d="M74.6,59.9l1.1,5.8l-26.2,5.1L39.3,18.5l6-1.2l9.1,46.6L74.6,59.9z"/>
		<path class="st10" d="M78.6,12.3l6-0.9l7.5,52.2l-6,0.9L78.6,12.3z"/>
		<path class="st10" d="M150,56.4l7.6,8.8l-7.8-0.1l-4.7-5.3c-4.2,2.3-9.1,3.7-14.4,3.6c-15.8-0.1-28.4-12.6-28.3-28.1
			s13-27.8,28.8-27.7c15.8,0.1,28.4,12.6,28.3,28.1C159.5,44,155.9,51.4,150,56.4z M141.2,55.2l-11.9-13.7l7.8,0.1l9.1,10.4
			c4.5-3.9,7.2-9.7,7.2-16.3c0.1-12.4-9.5-22-22.1-22.1c-12.6-0.1-22.3,9.3-22.4,21.8c-0.1,12.4,9.5,22,22.1,22.1
			C134.6,57.5,138.1,56.7,141.2,55.2z"/>
		<path class="st10" d="M172.4,47.4l6.7-36.2l6,1.1l-6.7,36.2c-1.2,6.5,2.9,12.5,9.6,13.7c6.7,1.2,12.6-2.9,13.8-9.4l6.7-36.2l6,1.1
			L207.8,54c-1.8,9.7-11,16-20.9,14.1C177,66.3,170.6,57.2,172.4,47.4z"/>
		<path class="st10" d="M239.4,30.3l-5.3,16.2l20.2,6.6l-1.8,5.6l-20.2-6.6l-5.8,17.7l21,6.9l-1.8,5.6l-26.8-8.8l16.6-50.7l26.8,8.8
			l-1.8,5.6L239.4,30.3z"/>
	</g>
</g>
<g id="ovale_green_copy" class="st0">
	<g class="st1">
		<path class="st11" d="M33.9,59.8C36.4,68.1,31.5,76.4,23,79L8,83.5l-15.6-51l15-4.6c8-2.4,16.4,1.5,18.8,9.3
			c1.4,4.7,0.1,9.4-2.9,12.8C28.3,51.3,32.3,54.6,33.9,59.8z M-0.1,36.3l5,16.5l9.4-2.9c4.8-1.5,7.6-6.1,6.1-10.9
			c-1.5-4.8-6.3-7.1-11.1-5.6L-0.1,36.3z M28.1,61.5c-1.6-5.3-6.8-7.7-12.1-6.1l-9.4,2.9l5.5,17.9l9.4-2.9
			C26.7,71.8,29.7,66.8,28.1,61.5z"/>
		<path class="st11" d="M74.6,59.9l1.1,5.8l-26.2,5.1L39.3,18.5l6-1.2l9.1,46.6L74.6,59.9z"/>
		<path class="st11" d="M78.6,12.3l6-0.9l7.5,52.2l-6,0.9L78.6,12.3z"/>
		<path class="st11" d="M150,56.4l7.6,8.8l-7.8-0.1l-4.7-5.3c-4.2,2.3-9.1,3.7-14.4,3.6c-15.8-0.1-28.4-12.6-28.3-28.1
			s13-27.8,28.8-27.7c15.8,0.1,28.4,12.6,28.3,28.1C159.5,44,155.9,51.4,150,56.4z M141.2,55.2l-11.9-13.7l7.8,0.1l9.1,10.4
			c4.5-3.9,7.2-9.7,7.2-16.3c0.1-12.4-9.5-22-22.1-22.1c-12.6-0.1-22.3,9.3-22.4,21.8c-0.1,12.4,9.5,22,22.1,22.1
			C134.6,57.5,138.1,56.7,141.2,55.2z"/>
		<path class="st11" d="M172.4,47.4l6.7-36.2l6,1.1l-6.7,36.2c-1.2,6.5,2.9,12.5,9.6,13.7c6.7,1.2,12.6-2.9,13.8-9.4l6.7-36.2l6,1.1
			L207.8,54c-1.8,9.7-11,16-20.9,14.1C177,66.3,170.6,57.2,172.4,47.4z"/>
		<path class="st11" d="M239.4,30.3l-5.3,16.2l20.2,6.6l-1.8,5.6l-20.2-6.6l-5.8,17.7l21,6.9l-1.8,5.6l-26.8-8.8l16.6-50.7l26.8,8.8
			l-1.8,5.6L239.4,30.3z"/>
	</g>
</g>
<g id="ovale_orange_light_copy" class="st0">
	<g class="st1">
		<path class="st12" d="M33.9,59.8C36.4,68.1,31.5,76.4,23,79L8,83.5l-15.6-51l15-4.6c8-2.4,16.4,1.5,18.8,9.3
			c1.4,4.7,0.1,9.4-2.9,12.8C28.3,51.3,32.3,54.6,33.9,59.8z M-0.1,36.3l5,16.5l9.4-2.9c4.8-1.5,7.6-6.1,6.1-10.9
			c-1.5-4.8-6.3-7.1-11.1-5.6L-0.1,36.3z M28.1,61.5c-1.6-5.3-6.8-7.7-12.1-6.1l-9.4,2.9l5.5,17.9l9.4-2.9
			C26.7,71.8,29.7,66.8,28.1,61.5z"/>
		<path class="st12" d="M74.6,59.9l1.1,5.8l-26.2,5.1L39.3,18.5l6-1.2l9.1,46.6L74.6,59.9z"/>
		<path class="st12" d="M78.6,12.3l6-0.9l7.5,52.2l-6,0.9L78.6,12.3z"/>
		<path class="st12" d="M150,56.4l7.6,8.8l-7.8-0.1l-4.7-5.3c-4.2,2.3-9.1,3.7-14.4,3.6c-15.8-0.1-28.4-12.6-28.3-28.1
			s13-27.8,28.8-27.7c15.8,0.1,28.4,12.6,28.3,28.1C159.5,44,155.9,51.4,150,56.4z M141.2,55.2l-11.9-13.7l7.8,0.1l9.1,10.4
			c4.5-3.9,7.2-9.7,7.2-16.3c0.1-12.4-9.5-22-22.1-22.1c-12.6-0.1-22.3,9.3-22.4,21.8c-0.1,12.4,9.5,22,22.1,22.1
			C134.6,57.5,138.1,56.7,141.2,55.2z"/>
		<path class="st12" d="M172.4,47.4l6.7-36.2l6,1.1l-6.7,36.2c-1.2,6.5,2.9,12.5,9.6,13.7c6.7,1.2,12.6-2.9,13.8-9.4l6.7-36.2l6,1.1
			L207.8,54c-1.8,9.7-11,16-20.9,14.1C177,66.3,170.6,57.2,172.4,47.4z"/>
		<path class="st12" d="M239.4,30.3l-5.3,16.2l20.2,6.6l-1.8,5.6l-20.2-6.6l-5.8,17.7l21,6.9l-1.8,5.6l-26.8-8.8l16.6-50.7l26.8,8.8
			l-1.8,5.6L239.4,30.3z"/>
	</g>
</g>
<g id="ovale_orange_dark_copy" class="st0">
	<g class="st1">
		<path class="st13" d="M33.9,59.8C36.4,68.1,31.5,76.4,23,79L8,83.5l-15.6-51l15-4.6c8-2.4,16.4,1.5,18.8,9.3
			c1.4,4.7,0.1,9.4-2.9,12.8C28.3,51.3,32.3,54.6,33.9,59.8z M-0.1,36.3l5,16.5l9.4-2.9c4.8-1.5,7.6-6.1,6.1-10.9
			c-1.5-4.8-6.3-7.1-11.1-5.6L-0.1,36.3z M28.1,61.5c-1.6-5.3-6.8-7.7-12.1-6.1l-9.4,2.9l5.5,17.9l9.4-2.9
			C26.7,71.8,29.7,66.8,28.1,61.5z"/>
		<path class="st13" d="M74.6,59.9l1.1,5.8l-26.2,5.1L39.3,18.5l6-1.2l9.1,46.6L74.6,59.9z"/>
		<path class="st13" d="M78.6,12.3l6-0.9l7.5,52.2l-6,0.9L78.6,12.3z"/>
		<path class="st13" d="M150,56.4l7.6,8.8l-7.8-0.1l-4.7-5.3c-4.2,2.3-9.1,3.7-14.4,3.6c-15.8-0.1-28.4-12.6-28.3-28.1
			s13-27.8,28.8-27.7c15.8,0.1,28.4,12.6,28.3,28.1C159.5,44,155.9,51.4,150,56.4z M141.2,55.2l-11.9-13.7l7.8,0.1l9.1,10.4
			c4.5-3.9,7.2-9.7,7.2-16.3c0.1-12.4-9.5-22-22.1-22.1c-12.6-0.1-22.3,9.3-22.4,21.8c-0.1,12.4,9.5,22,22.1,22.1
			C134.6,57.5,138.1,56.7,141.2,55.2z"/>
		<path class="st13" d="M172.4,47.4l6.7-36.2l6,1.1l-6.7,36.2c-1.2,6.5,2.9,12.5,9.6,13.7c6.7,1.2,12.6-2.9,13.8-9.4l6.7-36.2l6,1.1
			L207.8,54c-1.8,9.7-11,16-20.9,14.1C177,66.3,170.6,57.2,172.4,47.4z"/>
		<path class="st13" d="M239.4,30.3l-5.3,16.2l20.2,6.6l-1.8,5.6l-20.2-6.6l-5.8,17.7l21,6.9l-1.8,5.6l-26.8-8.8l16.6-50.7l26.8,8.8
			l-1.8,5.6L239.4,30.3z"/>
	</g>
</g>
<g id="ovale_white_copy" class="st0">
	<g class="st1">
		<path class="st7" d="M33.9,59.8C36.4,68.1,31.5,76.4,23,79L8,83.5l-15.6-51l15-4.6c8-2.4,16.4,1.5,18.8,9.3
			c1.4,4.7,0.1,9.4-2.9,12.8C28.3,51.3,32.3,54.6,33.9,59.8z M-0.1,36.3l5,16.5l9.4-2.9c4.8-1.5,7.6-6.1,6.1-10.9
			c-1.5-4.8-6.3-7.1-11.1-5.6L-0.1,36.3z M28.1,61.5c-1.6-5.3-6.8-7.7-12.1-6.1l-9.4,2.9l5.5,17.9l9.4-2.9
			C26.7,71.8,29.7,66.8,28.1,61.5z"/>
		<path class="st7" d="M74.6,59.9l1.1,5.8l-26.2,5.1L39.3,18.5l6-1.2l9.1,46.6L74.6,59.9z"/>
		<path class="st7" d="M78.6,12.3l6-0.9l7.5,52.2l-6,0.9L78.6,12.3z"/>
		<path class="st7" d="M150,56.4l7.6,8.8l-7.8-0.1l-4.7-5.3c-4.2,2.3-9.1,3.7-14.4,3.6c-15.8-0.1-28.4-12.6-28.3-28.1
			s13-27.8,28.8-27.7c15.8,0.1,28.4,12.6,28.3,28.1C159.5,44,155.9,51.4,150,56.4z M141.2,55.2l-11.9-13.7l7.8,0.1l9.1,10.4
			c4.5-3.9,7.2-9.7,7.2-16.3c0.1-12.4-9.5-22-22.1-22.1c-12.6-0.1-22.3,9.3-22.4,21.8c-0.1,12.4,9.5,22,22.1,22.1
			C134.6,57.5,138.1,56.7,141.2,55.2z"/>
		<path class="st7" d="M172.4,47.4l6.7-36.2l6,1.1l-6.7,36.2c-1.2,6.5,2.9,12.5,9.6,13.7c6.7,1.2,12.6-2.9,13.8-9.4l6.7-36.2l6,1.1
			L207.8,54c-1.8,9.7-11,16-20.9,14.1C177,66.3,170.6,57.2,172.4,47.4z"/>
		<path class="st7" d="M239.4,30.3l-5.3,16.2l20.2,6.6l-1.8,5.6l-20.2-6.6l-5.8,17.7l21,6.9l-1.8,5.6l-26.8-8.8l16.6-50.7l26.8,8.8
			l-1.8,5.6L239.4,30.3z"/>
	</g>
</g>
<g id="ovale_black_copy" class="st0">
	<g class="st1">
		<path class="st8" d="M33.9,59.8C36.4,68.1,31.5,76.4,23,79L8,83.5l-15.6-51l15-4.6c8-2.4,16.4,1.5,18.8,9.3
			c1.4,4.7,0.1,9.4-2.9,12.8C28.3,51.3,32.3,54.6,33.9,59.8z M-0.1,36.3l5,16.5l9.4-2.9c4.8-1.5,7.6-6.1,6.1-10.9
			c-1.5-4.8-6.3-7.1-11.1-5.6L-0.1,36.3z M28.1,61.5c-1.6-5.3-6.8-7.7-12.1-6.1l-9.4,2.9l5.5,17.9l9.4-2.9
			C26.7,71.8,29.7,66.8,28.1,61.5z"/>
		<path class="st8" d="M74.6,59.9l1.1,5.8l-26.2,5.1L39.3,18.5l6-1.2l9.1,46.6L74.6,59.9z"/>
		<path class="st8" d="M78.6,12.3l6-0.9l7.5,52.2l-6,0.9L78.6,12.3z"/>
		<path class="st8" d="M150,56.4l7.6,8.8l-7.8-0.1l-4.7-5.3c-4.2,2.3-9.1,3.7-14.4,3.6c-15.8-0.1-28.4-12.6-28.3-28.1
			s13-27.8,28.8-27.7c15.8,0.1,28.4,12.6,28.3,28.1C159.5,44,155.9,51.4,150,56.4z M141.2,55.2l-11.9-13.7l7.8,0.1l9.1,10.4
			c4.5-3.9,7.2-9.7,7.2-16.3c0.1-12.4-9.5-22-22.1-22.1c-12.6-0.1-22.3,9.3-22.4,21.8c-0.1,12.4,9.5,22,22.1,22.1
			C134.6,57.5,138.1,56.7,141.2,55.2z"/>
		<path class="st8" d="M172.4,47.4l6.7-36.2l6,1.1l-6.7,36.2c-1.2,6.5,2.9,12.5,9.6,13.7c6.7,1.2,12.6-2.9,13.8-9.4l6.7-36.2l6,1.1
			L207.8,54c-1.8,9.7-11,16-20.9,14.1C177,66.3,170.6,57.2,172.4,47.4z"/>
		<path class="st8" d="M239.4,30.3l-5.3,16.2l20.2,6.6l-1.8,5.6l-20.2-6.6l-5.8,17.7l21,6.9l-1.8,5.6l-26.8-8.8l16.6-50.7l26.8,8.8
			l-1.8,5.6L239.4,30.3z"/>
	</g>
</g>
<g id="straight_GREY" class="st0">
	<g class="st1">
		<path class="st2" d="M34,39.1c0,8.8-7.2,15.4-16.1,15.4H0V1.3h16.2c8.4,0,15.4,6.2,15.4,14.6c0,4.5-2.1,8.2-5.5,10.6
			C30.8,29,34,33.4,34,39.1z M6.8,7.8v16h9.5c4.6,0,8.4-3.3,8.4-8S21,7.8,16.3,7.8H6.8z M27.1,39.1c0-5.1-4-8.7-9.1-8.7H6.8v17.6
			h11.1C23.1,47.9,27.1,44.2,27.1,39.1z"/>
		<path class="st2" d="M73.6,47.8v6.6H46.3V1.3h6.9v46.5H73.6z"/>
		<path class="st2" d="M85.4,1.3h6.9v53.1h-6.9V1.3z"/>
		<path class="st2" d="M152.7,48.1l8.1,9h-9l-4.6-5.1c-4.1,2.3-8.9,3.6-14,3.6c-15.7,0-28.4-12.3-28.4-27.8S117.5,0,133.2,0
			c15.7,0,28.4,12.3,28.4,27.8C161.7,35.9,158.2,43.1,152.7,48.1z M142.7,46.9L131,33.8h9l8.2,9.3c4-3.8,6.4-9.2,6.4-15.3
			c0-11.9-9.3-21.1-21.4-21.1c-12.1,0-21.4,9.2-21.4,21.1s9.3,21.1,21.4,21.1C136.6,48.9,139.8,48.2,142.7,46.9z"/>
		<path class="st2" d="M173.7,37.6V1.3h6.9v36.3c0,6.4,4.9,11.3,11.5,11.3c6.5,0,11.4-4.9,11.4-11.3V1.3h6.9v36.3
			c0,10.1-8.1,18-18.3,18S173.7,47.7,173.7,37.6z"/>
		<path class="st2" d="M233.2,7.9v15.9h20.5v6.6h-20.5v17.4h21.5v6.6h-28.4V1.3h28.4v6.6H233.2z"/>
	</g>
	<g class="st1">
		<path class="st2" d="M75.3,96.7c0,3.5-2.9,6.1-6.4,6.1h-7v-21h6.4c3.3,0,6.1,2.5,6.1,5.8c0,1.8-0.8,3.2-2.2,4.2
			C74.1,92.7,75.3,94.4,75.3,96.7z M64.6,84.3v6.3h3.7c1.8,0,3.3-1.3,3.3-3.1c0-1.9-1.5-3.2-3.3-3.2H64.6z M72.6,96.7
			c0-2-1.6-3.5-3.6-3.5h-4.4v6.9H69C71,100.1,72.6,98.7,72.6,96.7z"/>
		<path class="st2" d="M86.9,93v9.7h-2.7v-9.7l-6.8-11.3h3.1l5.1,8.5l5.1-8.5h3.1L86.9,93z"/>
		<path class="st2" d="M122.5,81.8v21.6h-0.1L108.9,88v14.7h-2.7V81.2h0.1l13.6,15.3V81.8H122.5z"/>
		<path class="st2" d="M127.4,92.2c0-6.1,5-11,11.2-11s11.2,4.9,11.2,11c0,6.1-5,11-11.2,11S127.4,98.3,127.4,92.2z M147.1,92.2
			c0-4.7-3.7-8.3-8.4-8.3c-4.8,0-8.4,3.6-8.4,8.3c0,4.7,3.7,8.3,8.4,8.3C143.4,100.6,147.1,96.9,147.1,92.2z"/>
		<path class="st2" d="M168.2,96.7c0,3.5-2.9,6.1-6.4,6.1h-7v-21h6.4c3.3,0,6.1,2.5,6.1,5.8c0,1.8-0.8,3.2-2.2,4.2
			C166.9,92.7,168.2,94.4,168.2,96.7z M157.5,84.3v6.3h3.8c1.8,0,3.3-1.3,3.3-3.1c0-1.9-1.5-3.2-3.3-3.2H157.5z M165.5,96.7
			c0-2-1.6-3.5-3.6-3.5h-4.4v6.9h4.4C163.9,100.1,165.5,98.7,165.5,96.7z"/>
		<path class="st2" d="M173.1,81.8h2.7v21h-2.7V81.8z"/>
		<path class="st2" d="M181.7,100.1h6.1c2,0,3.6-1.4,3.6-3.4c0-2-1.6-3.4-3.6-3.4H187c-3.4,0-6.1-2.5-6.1-5.8c0-3.3,2.7-5.8,6.1-5.8
			h5.9v2.6h-6c-1.9,0-3.3,1.3-3.3,3.2c0,1.9,1.4,3.1,3.3,3.1h0.8c3.5,0,6.3,2.6,6.3,6c0,3.4-2.8,6-6.3,6h-6.1V100.1z"/>
	</g>
</g>
<g id="straight_BEIGE" class="st0">
	<g class="st1">
		<path class="st3" d="M34,39.1c0,8.8-7.2,15.4-16.1,15.4H0V1.3h16.2c8.4,0,15.4,6.2,15.4,14.6c0,4.5-2.1,8.2-5.5,10.6
			C30.8,29,34,33.4,34,39.1z M6.8,7.8v16h9.5c4.6,0,8.4-3.3,8.4-8S21,7.8,16.3,7.8H6.8z M27.1,39.1c0-5.1-4-8.7-9.1-8.7H6.8v17.6
			h11.1C23.1,47.9,27.1,44.2,27.1,39.1z"/>
		<path class="st3" d="M73.6,47.8v6.6H46.3V1.3h6.9v46.5H73.6z"/>
		<path class="st3" d="M85.4,1.3h6.9v53.1h-6.9V1.3z"/>
		<path class="st3" d="M152.7,48.1l8.1,9h-9l-4.6-5.1c-4.1,2.3-8.9,3.6-14,3.6c-15.7,0-28.4-12.3-28.4-27.8S117.5,0,133.2,0
			c15.7,0,28.4,12.3,28.4,27.8C161.7,35.9,158.2,43.1,152.7,48.1z M142.7,46.9L131,33.8h9l8.2,9.3c4-3.8,6.4-9.2,6.4-15.3
			c0-11.9-9.3-21.1-21.4-21.1c-12.1,0-21.4,9.2-21.4,21.1s9.3,21.1,21.4,21.1C136.6,48.9,139.8,48.2,142.7,46.9z"/>
		<path class="st3" d="M173.7,37.6V1.3h6.9v36.3c0,6.4,4.9,11.3,11.5,11.3c6.5,0,11.4-4.9,11.4-11.3V1.3h6.9v36.3
			c0,10.1-8.1,18-18.3,18S173.7,47.7,173.7,37.6z"/>
		<path class="st3" d="M233.2,7.9v15.9h20.5v6.6h-20.5v17.4h21.5v6.6h-28.4V1.3h28.4v6.6H233.2z"/>
	</g>
	<g class="st1">
		<path class="st3" d="M75.3,96.7c0,3.5-2.9,6.1-6.4,6.1h-7v-21h6.4c3.3,0,6.1,2.5,6.1,5.8c0,1.8-0.8,3.2-2.2,4.2
			C74.1,92.7,75.3,94.4,75.3,96.7z M64.6,84.3v6.3h3.7c1.8,0,3.3-1.3,3.3-3.1c0-1.9-1.5-3.2-3.3-3.2H64.6z M72.6,96.7
			c0-2-1.6-3.5-3.6-3.5h-4.4v6.9H69C71,100.1,72.6,98.7,72.6,96.7z"/>
		<path class="st3" d="M86.9,93v9.7h-2.7v-9.7l-6.8-11.3h3.1l5.1,8.5l5.1-8.5h3.1L86.9,93z"/>
		<path class="st3" d="M122.5,81.8v21.6h-0.1L108.9,88v14.7h-2.7V81.2h0.1l13.6,15.3V81.8H122.5z"/>
		<path class="st3" d="M127.4,92.2c0-6.1,5-11,11.2-11s11.2,4.9,11.2,11c0,6.1-5,11-11.2,11S127.4,98.3,127.4,92.2z M147.1,92.2
			c0-4.7-3.7-8.3-8.4-8.3c-4.8,0-8.4,3.6-8.4,8.3c0,4.7,3.7,8.3,8.4,8.3C143.4,100.6,147.1,96.9,147.1,92.2z"/>
		<path class="st3" d="M168.2,96.7c0,3.5-2.9,6.1-6.4,6.1h-7v-21h6.4c3.3,0,6.1,2.5,6.1,5.8c0,1.8-0.8,3.2-2.2,4.2
			C166.9,92.7,168.2,94.4,168.2,96.7z M157.5,84.3v6.3h3.8c1.8,0,3.3-1.3,3.3-3.1c0-1.9-1.5-3.2-3.3-3.2H157.5z M165.5,96.7
			c0-2-1.6-3.5-3.6-3.5h-4.4v6.9h4.4C163.9,100.1,165.5,98.7,165.5,96.7z"/>
		<path class="st3" d="M173.1,81.8h2.7v21h-2.7V81.8z"/>
		<path class="st3" d="M181.7,100.1h6.1c2,0,3.6-1.4,3.6-3.4c0-2-1.6-3.4-3.6-3.4H187c-3.4,0-6.1-2.5-6.1-5.8c0-3.3,2.7-5.8,6.1-5.8
			h5.9v2.6h-6c-1.9,0-3.3,1.3-3.3,3.2c0,1.9,1.4,3.1,3.3,3.1h0.8c3.5,0,6.3,2.6,6.3,6c0,3.4-2.8,6-6.3,6h-6.1V100.1z"/>
	</g>
</g>
<g id="straight_GREEN" class="st0">
	<g class="st1">
		<path class="st4" d="M34,39.1c0,8.8-7.2,15.4-16.1,15.4H0V1.3h16.2c8.4,0,15.4,6.2,15.4,14.6c0,4.5-2.1,8.2-5.5,10.6
			C30.8,29,34,33.4,34,39.1z M6.8,7.8v16h9.5c4.6,0,8.4-3.3,8.4-8S21,7.8,16.3,7.8H6.8z M27.1,39.1c0-5.1-4-8.7-9.1-8.7H6.8v17.6
			h11.1C23.1,47.9,27.1,44.2,27.1,39.1z"/>
		<path class="st4" d="M73.6,47.8v6.6H46.3V1.3h6.9v46.5H73.6z"/>
		<path class="st4" d="M85.4,1.3h6.9v53.1h-6.9V1.3z"/>
		<path class="st4" d="M152.7,48.1l8.1,9h-9l-4.6-5.1c-4.1,2.3-8.9,3.6-14,3.6c-15.7,0-28.4-12.3-28.4-27.8S117.5,0,133.2,0
			c15.7,0,28.4,12.3,28.4,27.8C161.7,35.9,158.2,43.1,152.7,48.1z M142.7,46.9L131,33.8h9l8.2,9.3c4-3.8,6.4-9.2,6.4-15.3
			c0-11.9-9.3-21.1-21.4-21.1c-12.1,0-21.4,9.2-21.4,21.1s9.3,21.1,21.4,21.1C136.6,48.9,139.8,48.2,142.7,46.9z"/>
		<path class="st4" d="M173.7,37.6V1.3h6.9v36.3c0,6.4,4.9,11.3,11.5,11.3c6.5,0,11.4-4.9,11.4-11.3V1.3h6.9v36.3
			c0,10.1-8.1,18-18.3,18S173.7,47.7,173.7,37.6z"/>
		<path class="st4" d="M233.2,7.9v15.9h20.5v6.6h-20.5v17.4h21.5v6.6h-28.4V1.3h28.4v6.6H233.2z"/>
	</g>
	<g class="st1">
		<path class="st4" d="M75.3,96.7c0,3.5-2.9,6.1-6.4,6.1h-7v-21h6.4c3.3,0,6.1,2.5,6.1,5.8c0,1.8-0.8,3.2-2.2,4.2
			C74.1,92.7,75.3,94.4,75.3,96.7z M64.6,84.3v6.3h3.7c1.8,0,3.3-1.3,3.3-3.1c0-1.9-1.5-3.2-3.3-3.2H64.6z M72.6,96.7
			c0-2-1.6-3.5-3.6-3.5h-4.4v6.9H69C71,100.1,72.6,98.7,72.6,96.7z"/>
		<path class="st4" d="M86.9,93v9.7h-2.7v-9.7l-6.8-11.3h3.1l5.1,8.5l5.1-8.5h3.1L86.9,93z"/>
		<path class="st4" d="M122.5,81.8v21.6h-0.1L108.9,88v14.7h-2.7V81.2h0.1l13.6,15.3V81.8H122.5z"/>
		<path class="st4" d="M127.4,92.2c0-6.1,5-11,11.2-11s11.2,4.9,11.2,11c0,6.1-5,11-11.2,11S127.4,98.3,127.4,92.2z M147.1,92.2
			c0-4.7-3.7-8.3-8.4-8.3c-4.8,0-8.4,3.6-8.4,8.3c0,4.7,3.7,8.3,8.4,8.3C143.4,100.6,147.1,96.9,147.1,92.2z"/>
		<path class="st4" d="M168.2,96.7c0,3.5-2.9,6.1-6.4,6.1h-7v-21h6.4c3.3,0,6.1,2.5,6.1,5.8c0,1.8-0.8,3.2-2.2,4.2
			C166.9,92.7,168.2,94.4,168.2,96.7z M157.5,84.3v6.3h3.8c1.8,0,3.3-1.3,3.3-3.1c0-1.9-1.5-3.2-3.3-3.2H157.5z M165.5,96.7
			c0-2-1.6-3.5-3.6-3.5h-4.4v6.9h4.4C163.9,100.1,165.5,98.7,165.5,96.7z"/>
		<path class="st4" d="M173.1,81.8h2.7v21h-2.7V81.8z"/>
		<path class="st4" d="M181.7,100.1h6.1c2,0,3.6-1.4,3.6-3.4c0-2-1.6-3.4-3.6-3.4H187c-3.4,0-6.1-2.5-6.1-5.8c0-3.3,2.7-5.8,6.1-5.8
			h5.9v2.6h-6c-1.9,0-3.3,1.3-3.3,3.2c0,1.9,1.4,3.1,3.3,3.1h0.8c3.5,0,6.3,2.6,6.3,6c0,3.4-2.8,6-6.3,6h-6.1V100.1z"/>
	</g>
</g>
<g id="straight_ORANGE" class="st0">
	<g class="st1">
		<path class="st6" d="M34,39.1c0,8.8-7.2,15.4-16.1,15.4H0V1.3h16.2c8.4,0,15.4,6.2,15.4,14.6c0,4.5-2.1,8.2-5.5,10.6
			C30.8,29,34,33.4,34,39.1z M6.8,7.8v16h9.5c4.6,0,8.4-3.3,8.4-8S21,7.8,16.3,7.8H6.8z M27.1,39.1c0-5.1-4-8.7-9.1-8.7H6.8v17.6
			h11.1C23.1,47.9,27.1,44.2,27.1,39.1z"/>
		<path class="st6" d="M73.6,47.8v6.6H46.3V1.3h6.9v46.5H73.6z"/>
		<path class="st6" d="M85.4,1.3h6.9v53.1h-6.9V1.3z"/>
		<path class="st6" d="M152.7,48.1l8.1,9h-9l-4.6-5.1c-4.1,2.3-8.9,3.6-14,3.6c-15.7,0-28.4-12.3-28.4-27.8S117.5,0,133.2,0
			c15.7,0,28.4,12.3,28.4,27.8C161.7,35.9,158.2,43.1,152.7,48.1z M142.7,46.9L131,33.8h9l8.2,9.3c4-3.8,6.4-9.2,6.4-15.3
			c0-11.9-9.3-21.1-21.4-21.1c-12.1,0-21.4,9.2-21.4,21.1s9.3,21.1,21.4,21.1C136.6,48.9,139.8,48.2,142.7,46.9z"/>
		<path class="st6" d="M173.7,37.6V1.3h6.9v36.3c0,6.4,4.9,11.3,11.5,11.3c6.5,0,11.4-4.9,11.4-11.3V1.3h6.9v36.3
			c0,10.1-8.1,18-18.3,18S173.7,47.7,173.7,37.6z"/>
		<path class="st6" d="M233.2,7.9v15.9h20.5v6.6h-20.5v17.4h21.5v6.6h-28.4V1.3h28.4v6.6H233.2z"/>
	</g>
	<g class="st1">
		<path class="st6" d="M75.3,96.7c0,3.5-2.9,6.1-6.4,6.1h-7v-21h6.4c3.3,0,6.1,2.5,6.1,5.8c0,1.8-0.8,3.2-2.2,4.2
			C74.1,92.7,75.3,94.4,75.3,96.7z M64.6,84.3v6.3h3.7c1.8,0,3.3-1.3,3.3-3.1c0-1.9-1.5-3.2-3.3-3.2H64.6z M72.6,96.7
			c0-2-1.6-3.5-3.6-3.5h-4.4v6.9H69C71,100.1,72.6,98.7,72.6,96.7z"/>
		<path class="st6" d="M86.9,93v9.7h-2.7v-9.7l-6.8-11.3h3.1l5.1,8.5l5.1-8.5h3.1L86.9,93z"/>
		<path class="st6" d="M122.5,81.8v21.6h-0.1L108.9,88v14.7h-2.7V81.2h0.1l13.6,15.3V81.8H122.5z"/>
		<path class="st6" d="M127.4,92.2c0-6.1,5-11,11.2-11s11.2,4.9,11.2,11c0,6.1-5,11-11.2,11S127.4,98.3,127.4,92.2z M147.1,92.2
			c0-4.7-3.7-8.3-8.4-8.3c-4.8,0-8.4,3.6-8.4,8.3c0,4.7,3.7,8.3,8.4,8.3C143.4,100.6,147.1,96.9,147.1,92.2z"/>
		<path class="st6" d="M168.2,96.7c0,3.5-2.9,6.1-6.4,6.1h-7v-21h6.4c3.3,0,6.1,2.5,6.1,5.8c0,1.8-0.8,3.2-2.2,4.2
			C166.9,92.7,168.2,94.4,168.2,96.7z M157.5,84.3v6.3h3.8c1.8,0,3.3-1.3,3.3-3.1c0-1.9-1.5-3.2-3.3-3.2H157.5z M165.5,96.7
			c0-2-1.6-3.5-3.6-3.5h-4.4v6.9h4.4C163.9,100.1,165.5,98.7,165.5,96.7z"/>
		<path class="st6" d="M173.1,81.8h2.7v21h-2.7V81.8z"/>
		<path class="st6" d="M181.7,100.1h6.1c2,0,3.6-1.4,3.6-3.4c0-2-1.6-3.4-3.6-3.4H187c-3.4,0-6.1-2.5-6.1-5.8c0-3.3,2.7-5.8,6.1-5.8
			h5.9v2.6h-6c-1.9,0-3.3,1.3-3.3,3.2c0,1.9,1.4,3.1,3.3,3.1h0.8c3.5,0,6.3,2.6,6.3,6c0,3.4-2.8,6-6.3,6h-6.1V100.1z"/>
	</g>
</g>
<g id="straight_LIGHT_ORANGE" class="st0">
	<g class="st1">
		<path class="st5" d="M34,39.1c0,8.8-7.2,15.4-16.1,15.4H0V1.3h16.2c8.4,0,15.4,6.2,15.4,14.6c0,4.5-2.1,8.2-5.5,10.6
			C30.8,29,34,33.4,34,39.1z M6.8,7.8v16h9.5c4.6,0,8.4-3.3,8.4-8S21,7.8,16.3,7.8H6.8z M27.1,39.1c0-5.1-4-8.7-9.1-8.7H6.8v17.6
			h11.1C23.1,47.9,27.1,44.2,27.1,39.1z"/>
		<path class="st5" d="M73.6,47.8v6.6H46.3V1.3h6.9v46.5H73.6z"/>
		<path class="st5" d="M85.4,1.3h6.9v53.1h-6.9V1.3z"/>
		<path class="st5" d="M152.7,48.1l8.1,9h-9l-4.6-5.1c-4.1,2.3-8.9,3.6-14,3.6c-15.7,0-28.4-12.3-28.4-27.8S117.5,0,133.2,0
			c15.7,0,28.4,12.3,28.4,27.8C161.7,35.9,158.2,43.1,152.7,48.1z M142.7,46.9L131,33.8h9l8.2,9.3c4-3.8,6.4-9.2,6.4-15.3
			c0-11.9-9.3-21.1-21.4-21.1c-12.1,0-21.4,9.2-21.4,21.1s9.3,21.1,21.4,21.1C136.6,48.9,139.8,48.2,142.7,46.9z"/>
		<path class="st5" d="M173.7,37.6V1.3h6.9v36.3c0,6.4,4.9,11.3,11.5,11.3c6.5,0,11.4-4.9,11.4-11.3V1.3h6.9v36.3
			c0,10.1-8.1,18-18.3,18S173.7,47.7,173.7,37.6z"/>
		<path class="st5" d="M233.2,7.9v15.9h20.5v6.6h-20.5v17.4h21.5v6.6h-28.4V1.3h28.4v6.6H233.2z"/>
	</g>
	<g class="st1">
		<path class="st5" d="M75.3,96.7c0,3.5-2.9,6.1-6.4,6.1h-7v-21h6.4c3.3,0,6.1,2.5,6.1,5.8c0,1.8-0.8,3.2-2.2,4.2
			C74.1,92.7,75.3,94.4,75.3,96.7z M64.6,84.3v6.3h3.7c1.8,0,3.3-1.3,3.3-3.1c0-1.9-1.5-3.2-3.3-3.2H64.6z M72.6,96.7
			c0-2-1.6-3.5-3.6-3.5h-4.4v6.9H69C71,100.1,72.6,98.7,72.6,96.7z"/>
		<path class="st5" d="M86.9,93v9.7h-2.7v-9.7l-6.8-11.3h3.1l5.1,8.5l5.1-8.5h3.1L86.9,93z"/>
		<path class="st5" d="M122.5,81.8v21.6h-0.1L108.9,88v14.7h-2.7V81.2h0.1l13.6,15.3V81.8H122.5z"/>
		<path class="st5" d="M127.4,92.2c0-6.1,5-11,11.2-11s11.2,4.9,11.2,11c0,6.1-5,11-11.2,11S127.4,98.3,127.4,92.2z M147.1,92.2
			c0-4.7-3.7-8.3-8.4-8.3c-4.8,0-8.4,3.6-8.4,8.3c0,4.7,3.7,8.3,8.4,8.3C143.4,100.6,147.1,96.9,147.1,92.2z"/>
		<path class="st5" d="M168.2,96.7c0,3.5-2.9,6.1-6.4,6.1h-7v-21h6.4c3.3,0,6.1,2.5,6.1,5.8c0,1.8-0.8,3.2-2.2,4.2
			C166.9,92.7,168.2,94.4,168.2,96.7z M157.5,84.3v6.3h3.8c1.8,0,3.3-1.3,3.3-3.1c0-1.9-1.5-3.2-3.3-3.2H157.5z M165.5,96.7
			c0-2-1.6-3.5-3.6-3.5h-4.4v6.9h4.4C163.9,100.1,165.5,98.7,165.5,96.7z"/>
		<path class="st5" d="M173.1,81.8h2.7v21h-2.7V81.8z"/>
		<path class="st5" d="M181.7,100.1h6.1c2,0,3.6-1.4,3.6-3.4c0-2-1.6-3.4-3.6-3.4H187c-3.4,0-6.1-2.5-6.1-5.8c0-3.3,2.7-5.8,6.1-5.8
			h5.9v2.6h-6c-1.9,0-3.3,1.3-3.3,3.2c0,1.9,1.4,3.1,3.3,3.1h0.8c3.5,0,6.3,2.6,6.3,6c0,3.4-2.8,6-6.3,6h-6.1V100.1z"/>
	</g>
</g>
<g id="straight_WHITE" class="st0">
	<g class="st1">
		<path class="st7" d="M34,39.1c0,8.8-7.2,15.4-16.1,15.4H0V1.3h16.2c8.4,0,15.4,6.2,15.4,14.6c0,4.5-2.1,8.2-5.5,10.6
			C30.8,29,34,33.4,34,39.1z M6.8,7.8v16h9.5c4.6,0,8.4-3.3,8.4-8S21,7.8,16.3,7.8H6.8z M27.1,39.1c0-5.1-4-8.7-9.1-8.7H6.8v17.6
			h11.1C23.1,47.9,27.1,44.2,27.1,39.1z"/>
		<path class="st7" d="M73.6,47.8v6.6H46.3V1.3h6.9v46.5H73.6z"/>
		<path class="st7" d="M85.4,1.3h6.9v53.1h-6.9V1.3z"/>
		<path class="st7" d="M152.7,48.1l8.1,9h-9l-4.6-5.1c-4.1,2.3-8.9,3.6-14,3.6c-15.7,0-28.4-12.3-28.4-27.8S117.5,0,133.2,0
			c15.7,0,28.4,12.3,28.4,27.8C161.7,35.9,158.2,43.1,152.7,48.1z M142.7,46.9L131,33.8h9l8.2,9.3c4-3.8,6.4-9.2,6.4-15.3
			c0-11.9-9.3-21.1-21.4-21.1c-12.1,0-21.4,9.2-21.4,21.1s9.3,21.1,21.4,21.1C136.6,48.9,139.8,48.2,142.7,46.9z"/>
		<path class="st7" d="M173.7,37.6V1.3h6.9v36.3c0,6.4,4.9,11.3,11.5,11.3c6.5,0,11.4-4.9,11.4-11.3V1.3h6.9v36.3
			c0,10.1-8.1,18-18.3,18S173.7,47.7,173.7,37.6z"/>
		<path class="st7" d="M233.2,7.9v15.9h20.5v6.6h-20.5v17.4h21.5v6.6h-28.4V1.3h28.4v6.6H233.2z"/>
	</g>
	<g class="st1">
		<path class="st7" d="M75.3,96.7c0,3.5-2.9,6.1-6.4,6.1h-7v-21h6.4c3.3,0,6.1,2.5,6.1,5.8c0,1.8-0.8,3.2-2.2,4.2
			C74.1,92.7,75.3,94.4,75.3,96.7z M64.6,84.3v6.3h3.7c1.8,0,3.3-1.3,3.3-3.1c0-1.9-1.5-3.2-3.3-3.2H64.6z M72.6,96.7
			c0-2-1.6-3.5-3.6-3.5h-4.4v6.9H69C71,100.1,72.6,98.7,72.6,96.7z"/>
		<path class="st7" d="M86.9,93v9.7h-2.7v-9.7l-6.8-11.3h3.1l5.1,8.5l5.1-8.5h3.1L86.9,93z"/>
		<path class="st7" d="M122.5,81.8v21.6h-0.1L108.9,88v14.7h-2.7V81.2h0.1l13.6,15.3V81.8H122.5z"/>
		<path class="st7" d="M127.4,92.2c0-6.1,5-11,11.2-11s11.2,4.9,11.2,11c0,6.1-5,11-11.2,11S127.4,98.3,127.4,92.2z M147.1,92.2
			c0-4.7-3.7-8.3-8.4-8.3c-4.8,0-8.4,3.6-8.4,8.3c0,4.7,3.7,8.3,8.4,8.3C143.4,100.6,147.1,96.9,147.1,92.2z"/>
		<path class="st7" d="M168.2,96.7c0,3.5-2.9,6.1-6.4,6.1h-7v-21h6.4c3.3,0,6.1,2.5,6.1,5.8c0,1.8-0.8,3.2-2.2,4.2
			C166.9,92.7,168.2,94.4,168.2,96.7z M157.5,84.3v6.3h3.8c1.8,0,3.3-1.3,3.3-3.1c0-1.9-1.5-3.2-3.3-3.2H157.5z M165.5,96.7
			c0-2-1.6-3.5-3.6-3.5h-4.4v6.9h4.4C163.9,100.1,165.5,98.7,165.5,96.7z"/>
		<path class="st7" d="M173.1,81.8h2.7v21h-2.7V81.8z"/>
		<path class="st7" d="M181.7,100.1h6.1c2,0,3.6-1.4,3.6-3.4c0-2-1.6-3.4-3.6-3.4H187c-3.4,0-6.1-2.5-6.1-5.8c0-3.3,2.7-5.8,6.1-5.8
			h5.9v2.6h-6c-1.9,0-3.3,1.3-3.3,3.2c0,1.9,1.4,3.1,3.3,3.1h0.8c3.5,0,6.3,2.6,6.3,6c0,3.4-2.8,6-6.3,6h-6.1V100.1z"/>
	</g>
</g>
<g id="straight_BLACK" class="st0">
	<g class="st1">
		<path class="st8" d="M34,39.1c0,8.8-7.2,15.4-16.1,15.4H0V1.3h16.2c8.4,0,15.4,6.2,15.4,14.6c0,4.5-2.1,8.2-5.5,10.6
			C30.8,29,34,33.4,34,39.1z M6.8,7.8v16h9.5c4.6,0,8.4-3.3,8.4-8S21,7.8,16.3,7.8H6.8z M27.1,39.1c0-5.1-4-8.7-9.1-8.7H6.8v17.6
			h11.1C23.1,47.9,27.1,44.2,27.1,39.1z"/>
		<path class="st8" d="M73.6,47.8v6.6H46.3V1.3h6.9v46.5H73.6z"/>
		<path class="st8" d="M85.4,1.3h6.9v53.1h-6.9V1.3z"/>
		<path class="st8" d="M152.7,48.1l8.1,9h-9l-4.6-5.1c-4.1,2.3-8.9,3.6-14,3.6c-15.7,0-28.4-12.3-28.4-27.8S117.5,0,133.2,0
			c15.7,0,28.4,12.3,28.4,27.8C161.7,35.9,158.2,43.1,152.7,48.1z M142.7,46.9L131,33.8h9l8.2,9.3c4-3.8,6.4-9.2,6.4-15.3
			c0-11.9-9.3-21.1-21.4-21.1c-12.1,0-21.4,9.2-21.4,21.1s9.3,21.1,21.4,21.1C136.6,48.9,139.8,48.2,142.7,46.9z"/>
		<path class="st8" d="M173.7,37.6V1.3h6.9v36.3c0,6.4,4.9,11.3,11.5,11.3c6.5,0,11.4-4.9,11.4-11.3V1.3h6.9v36.3
			c0,10.1-8.1,18-18.3,18S173.7,47.7,173.7,37.6z"/>
		<path class="st8" d="M233.2,7.9v15.9h20.5v6.6h-20.5v17.4h21.5v6.6h-28.4V1.3h28.4v6.6H233.2z"/>
	</g>
	<g class="st1">
		<path class="st8" d="M75.3,96.7c0,3.5-2.9,6.1-6.4,6.1h-7v-21h6.4c3.3,0,6.1,2.5,6.1,5.8c0,1.8-0.8,3.2-2.2,4.2
			C74.1,92.7,75.3,94.4,75.3,96.7z M64.6,84.3v6.3h3.7c1.8,0,3.3-1.3,3.3-3.1c0-1.9-1.5-3.2-3.3-3.2H64.6z M72.6,96.7
			c0-2-1.6-3.5-3.6-3.5h-4.4v6.9H69C71,100.1,72.6,98.7,72.6,96.7z"/>
		<path class="st8" d="M86.9,93v9.7h-2.7v-9.7l-6.8-11.3h3.1l5.1,8.5l5.1-8.5h3.1L86.9,93z"/>
		<path class="st8" d="M122.5,81.8v21.6h-0.1L108.9,88v14.7h-2.7V81.2h0.1l13.6,15.3V81.8H122.5z"/>
		<path class="st8" d="M127.4,92.2c0-6.1,5-11,11.2-11s11.2,4.9,11.2,11c0,6.1-5,11-11.2,11S127.4,98.3,127.4,92.2z M147.1,92.2
			c0-4.7-3.7-8.3-8.4-8.3c-4.8,0-8.4,3.6-8.4,8.3c0,4.7,3.7,8.3,8.4,8.3C143.4,100.6,147.1,96.9,147.1,92.2z"/>
		<path class="st8" d="M168.2,96.7c0,3.5-2.9,6.1-6.4,6.1h-7v-21h6.4c3.3,0,6.1,2.5,6.1,5.8c0,1.8-0.8,3.2-2.2,4.2
			C166.9,92.7,168.2,94.4,168.2,96.7z M157.5,84.3v6.3h3.8c1.8,0,3.3-1.3,3.3-3.1c0-1.9-1.5-3.2-3.3-3.2H157.5z M165.5,96.7
			c0-2-1.6-3.5-3.6-3.5h-4.4v6.9h4.4C163.9,100.1,165.5,98.7,165.5,96.7z"/>
		<path class="st8" d="M173.1,81.8h2.7v21h-2.7V81.8z"/>
		<path class="st8" d="M181.7,100.1h6.1c2,0,3.6-1.4,3.6-3.4c0-2-1.6-3.4-3.6-3.4H187c-3.4,0-6.1-2.5-6.1-5.8c0-3.3,2.7-5.8,6.1-5.8
			h5.9v2.6h-6c-1.9,0-3.3,1.3-3.3,3.2c0,1.9,1.4,3.1,3.3,3.1h0.8c3.5,0,6.3,2.6,6.3,6c0,3.4-2.8,6-6.3,6h-6.1V100.1z"/>
	</g>
</g>
<g id="straight_GREY_CMYK" class="st0">
	<g class="st1">
		<path class="st2" d="M34,39.1c0,8.8-7.2,15.4-16.1,15.4H0V1.3h16.2c8.4,0,15.4,6.2,15.4,14.6c0,4.5-2.1,8.2-5.5,10.6
			C30.8,29,34,33.4,34,39.1z M6.8,7.8v16h9.5c4.6,0,8.4-3.3,8.4-8S21,7.8,16.3,7.8H6.8z M27.1,39.1c0-5.1-4-8.7-9.1-8.7H6.8v17.6
			h11.1C23.1,47.9,27.1,44.2,27.1,39.1z"/>
		<path class="st2" d="M73.6,47.8v6.6H46.3V1.3h6.9v46.5H73.6z"/>
		<path class="st2" d="M85.4,1.3h6.9v53.1h-6.9V1.3z"/>
		<path class="st2" d="M152.7,48.1l8.1,9h-9l-4.6-5.1c-4.1,2.3-8.9,3.6-14,3.6c-15.7,0-28.4-12.3-28.4-27.8S117.5,0,133.2,0
			c15.7,0,28.4,12.3,28.4,27.8C161.7,35.9,158.2,43.1,152.7,48.1z M142.7,46.9L131,33.8h9l8.2,9.3c4-3.8,6.4-9.2,6.4-15.3
			c0-11.9-9.3-21.1-21.4-21.1c-12.1,0-21.4,9.2-21.4,21.1s9.3,21.1,21.4,21.1C136.6,48.9,139.8,48.2,142.7,46.9z"/>
		<path class="st2" d="M173.7,37.6V1.3h6.9v36.3c0,6.4,4.9,11.3,11.5,11.3c6.5,0,11.4-4.9,11.4-11.3V1.3h6.9v36.3
			c0,10.1-8.1,18-18.3,18S173.7,47.7,173.7,37.6z"/>
		<path class="st2" d="M233.2,7.9v15.9h20.5v6.6h-20.5v17.4h21.5v6.6h-28.4V1.3h28.4v6.6H233.2z"/>
	</g>
	<g class="st1">
		<path class="st2" d="M75.3,96.7c0,3.5-2.9,6.1-6.4,6.1h-7v-21h6.4c3.3,0,6.1,2.5,6.1,5.8c0,1.8-0.8,3.2-2.2,4.2
			C74.1,92.7,75.3,94.4,75.3,96.7z M64.6,84.3v6.3h3.7c1.8,0,3.3-1.3,3.3-3.1c0-1.9-1.5-3.2-3.3-3.2H64.6z M72.6,96.7
			c0-2-1.6-3.5-3.6-3.5h-4.4v6.9H69C71,100.1,72.6,98.7,72.6,96.7z"/>
		<path class="st2" d="M86.9,93v9.7h-2.7v-9.7l-6.8-11.3h3.1l5.1,8.5l5.1-8.5h3.1L86.9,93z"/>
		<path class="st2" d="M122.5,81.8v21.6h-0.1L108.9,88v14.7h-2.7V81.2h0.1l13.6,15.3V81.8H122.5z"/>
		<path class="st2" d="M127.4,92.2c0-6.1,5-11,11.2-11s11.2,4.9,11.2,11c0,6.1-5,11-11.2,11S127.4,98.3,127.4,92.2z M147.1,92.2
			c0-4.7-3.7-8.3-8.4-8.3c-4.8,0-8.4,3.6-8.4,8.3c0,4.7,3.7,8.3,8.4,8.3C143.4,100.6,147.1,96.9,147.1,92.2z"/>
		<path class="st2" d="M168.2,96.7c0,3.5-2.9,6.1-6.4,6.1h-7v-21h6.4c3.3,0,6.1,2.5,6.1,5.8c0,1.8-0.8,3.2-2.2,4.2
			C166.9,92.7,168.2,94.4,168.2,96.7z M157.5,84.3v6.3h3.8c1.8,0,3.3-1.3,3.3-3.1c0-1.9-1.5-3.2-3.3-3.2H157.5z M165.5,96.7
			c0-2-1.6-3.5-3.6-3.5h-4.4v6.9h4.4C163.9,100.1,165.5,98.7,165.5,96.7z"/>
		<path class="st2" d="M173.1,81.8h2.7v21h-2.7V81.8z"/>
		<path class="st2" d="M181.7,100.1h6.1c2,0,3.6-1.4,3.6-3.4c0-2-1.6-3.4-3.6-3.4H187c-3.4,0-6.1-2.5-6.1-5.8c0-3.3,2.7-5.8,6.1-5.8
			h5.9v2.6h-6c-1.9,0-3.3,1.3-3.3,3.2c0,1.9,1.4,3.1,3.3,3.1h0.8c3.5,0,6.3,2.6,6.3,6c0,3.4-2.8,6-6.3,6h-6.1V100.1z"/>
	</g>
</g>
<g id="straight_BEIGE_CMYK" class="st0">
	<g class="st1">
		<path class="st3" d="M34,39.1c0,8.8-7.2,15.4-16.1,15.4H0V1.3h16.2c8.4,0,15.4,6.2,15.4,14.6c0,4.5-2.1,8.2-5.5,10.6
			C30.8,29,34,33.4,34,39.1z M6.8,7.8v16h9.5c4.6,0,8.4-3.3,8.4-8S21,7.8,16.3,7.8H6.8z M27.1,39.1c0-5.1-4-8.7-9.1-8.7H6.8v17.6
			h11.1C23.1,47.9,27.1,44.2,27.1,39.1z"/>
		<path class="st3" d="M73.6,47.8v6.6H46.3V1.3h6.9v46.5H73.6z"/>
		<path class="st3" d="M85.4,1.3h6.9v53.1h-6.9V1.3z"/>
		<path class="st3" d="M152.7,48.1l8.1,9h-9l-4.6-5.1c-4.1,2.3-8.9,3.6-14,3.6c-15.7,0-28.4-12.3-28.4-27.8S117.5,0,133.2,0
			c15.7,0,28.4,12.3,28.4,27.8C161.7,35.9,158.2,43.1,152.7,48.1z M142.7,46.9L131,33.8h9l8.2,9.3c4-3.8,6.4-9.2,6.4-15.3
			c0-11.9-9.3-21.1-21.4-21.1c-12.1,0-21.4,9.2-21.4,21.1s9.3,21.1,21.4,21.1C136.6,48.9,139.8,48.2,142.7,46.9z"/>
		<path class="st3" d="M173.7,37.6V1.3h6.9v36.3c0,6.4,4.9,11.3,11.5,11.3c6.5,0,11.4-4.9,11.4-11.3V1.3h6.9v36.3
			c0,10.1-8.1,18-18.3,18S173.7,47.7,173.7,37.6z"/>
		<path class="st3" d="M233.2,7.9v15.9h20.5v6.6h-20.5v17.4h21.5v6.6h-28.4V1.3h28.4v6.6H233.2z"/>
	</g>
	<g class="st1">
		<path class="st3" d="M75.3,96.7c0,3.5-2.9,6.1-6.4,6.1h-7v-21h6.4c3.3,0,6.1,2.5,6.1,5.8c0,1.8-0.8,3.2-2.2,4.2
			C74.1,92.7,75.3,94.4,75.3,96.7z M64.6,84.3v6.3h3.7c1.8,0,3.3-1.3,3.3-3.1c0-1.9-1.5-3.2-3.3-3.2H64.6z M72.6,96.7
			c0-2-1.6-3.5-3.6-3.5h-4.4v6.9H69C71,100.1,72.6,98.7,72.6,96.7z"/>
		<path class="st3" d="M86.9,93v9.7h-2.7v-9.7l-6.8-11.3h3.1l5.1,8.5l5.1-8.5h3.1L86.9,93z"/>
		<path class="st3" d="M122.5,81.8v21.6h-0.1L108.9,88v14.7h-2.7V81.2h0.1l13.6,15.3V81.8H122.5z"/>
		<path class="st3" d="M127.4,92.2c0-6.1,5-11,11.2-11s11.2,4.9,11.2,11c0,6.1-5,11-11.2,11S127.4,98.3,127.4,92.2z M147.1,92.2
			c0-4.7-3.7-8.3-8.4-8.3c-4.8,0-8.4,3.6-8.4,8.3c0,4.7,3.7,8.3,8.4,8.3C143.4,100.6,147.1,96.9,147.1,92.2z"/>
		<path class="st3" d="M168.2,96.7c0,3.5-2.9,6.1-6.4,6.1h-7v-21h6.4c3.3,0,6.1,2.5,6.1,5.8c0,1.8-0.8,3.2-2.2,4.2
			C166.9,92.7,168.2,94.4,168.2,96.7z M157.5,84.3v6.3h3.8c1.8,0,3.3-1.3,3.3-3.1c0-1.9-1.5-3.2-3.3-3.2H157.5z M165.5,96.7
			c0-2-1.6-3.5-3.6-3.5h-4.4v6.9h4.4C163.9,100.1,165.5,98.7,165.5,96.7z"/>
		<path class="st3" d="M173.1,81.8h2.7v21h-2.7V81.8z"/>
		<path class="st3" d="M181.7,100.1h6.1c2,0,3.6-1.4,3.6-3.4c0-2-1.6-3.4-3.6-3.4H187c-3.4,0-6.1-2.5-6.1-5.8c0-3.3,2.7-5.8,6.1-5.8
			h5.9v2.6h-6c-1.9,0-3.3,1.3-3.3,3.2c0,1.9,1.4,3.1,3.3,3.1h0.8c3.5,0,6.3,2.6,6.3,6c0,3.4-2.8,6-6.3,6h-6.1V100.1z"/>
	</g>
</g>
<g id="straight_GREEN_CMYK">
	<g>
		<path class="st14" d="M34,39.1c0,8.8-7.2,15.4-16.1,15.4H0V1.3h16.2c8.4,0,15.4,6.2,15.4,14.6c0,4.5-2.1,8.2-5.5,10.6
			C30.8,29,34,33.4,34,39.1z M6.8,7.8v16h9.5c4.6,0,8.4-3.3,8.4-8S21,7.8,16.3,7.8H6.8z M27.1,39.1c0-5.1-4-8.7-9.1-8.7H6.8v17.6
			h11.1C23.1,47.9,27.1,44.2,27.1,39.1z"/>
		<path class="st14" d="M73.6,47.8v6.6H46.3V1.3h6.9v46.5H73.6z"/>
		<path class="st14" d="M85.4,1.3h6.9v53.1h-6.9V1.3z"/>
		<path class="st14" d="M152.7,48.1l8.1,9h-9l-4.6-5.1c-4.1,2.3-8.9,3.6-14,3.6c-15.7,0-28.4-12.3-28.4-27.8S117.5,0,133.2,0
			c15.7,0,28.4,12.3,28.4,27.8C161.7,35.9,158.2,43.1,152.7,48.1z M142.7,46.9L131,33.8h9l8.2,9.3c4-3.8,6.4-9.2,6.4-15.3
			c0-11.9-9.3-21.1-21.4-21.1c-12.1,0-21.4,9.2-21.4,21.1s9.3,21.1,21.4,21.1C136.6,48.9,139.8,48.2,142.7,46.9z"/>
		<path class="st14" d="M173.7,37.6V1.3h6.9v36.3c0,6.4,4.9,11.3,11.5,11.3c6.5,0,11.4-4.9,11.4-11.3V1.3h6.9v36.3
			c0,10.1-8.1,18-18.3,18S173.7,47.7,173.7,37.6z"/>
		<path class="st14" d="M233.2,7.9v15.9h20.5v6.6h-20.5v17.4h21.5v6.6h-28.4V1.3h28.4v6.6H233.2z"/>
	</g>
	<g>
		<path class="st14" d="M75.3,96.7c0,3.5-2.9,6.1-6.4,6.1h-7v-21h6.4c3.3,0,6.1,2.5,6.1,5.8c0,1.8-0.8,3.2-2.2,4.2
			C74.1,92.7,75.3,94.4,75.3,96.7z M64.6,84.3v6.3h3.7c1.8,0,3.3-1.3,3.3-3.1c0-1.9-1.5-3.2-3.3-3.2H64.6z M72.6,96.7
			c0-2-1.6-3.5-3.6-3.5h-4.4v6.9H69C71,100.1,72.6,98.7,72.6,96.7z"/>
		<path class="st14" d="M86.9,93v9.7h-2.7v-9.7l-6.8-11.3h3.1l5.1,8.5l5.1-8.5h3.1L86.9,93z"/>
		<path class="st14" d="M122.5,81.8v21.6h-0.1L108.9,88v14.7h-2.7V81.2h0.1l13.6,15.3V81.8H122.5z"/>
		<path class="st14" d="M127.4,92.2c0-6.1,5-11,11.2-11s11.2,4.9,11.2,11c0,6.1-5,11-11.2,11S127.4,98.3,127.4,92.2z M147.1,92.2
			c0-4.7-3.7-8.3-8.4-8.3c-4.8,0-8.4,3.6-8.4,8.3c0,4.7,3.7,8.3,8.4,8.3C143.4,100.6,147.1,96.9,147.1,92.2z"/>
		<path class="st14" d="M168.2,96.7c0,3.5-2.9,6.1-6.4,6.1h-7v-21h6.4c3.3,0,6.1,2.5,6.1,5.8c0,1.8-0.8,3.2-2.2,4.2
			C166.9,92.7,168.2,94.4,168.2,96.7z M157.5,84.3v6.3h3.8c1.8,0,3.3-1.3,3.3-3.1c0-1.9-1.5-3.2-3.3-3.2H157.5z M165.5,96.7
			c0-2-1.6-3.5-3.6-3.5h-4.4v6.9h4.4C163.9,100.1,165.5,98.7,165.5,96.7z"/>
		<path class="st14" d="M173.1,81.8h2.7v21h-2.7V81.8z"/>
		<path class="st14" d="M181.7,100.1h6.1c2,0,3.6-1.4,3.6-3.4c0-2-1.6-3.4-3.6-3.4H187c-3.4,0-6.1-2.5-6.1-5.8
			c0-3.3,2.7-5.8,6.1-5.8h5.9v2.6h-6c-1.9,0-3.3,1.3-3.3,3.2c0,1.9,1.4,3.1,3.3,3.1h0.8c3.5,0,6.3,2.6,6.3,6c0,3.4-2.8,6-6.3,6h-6.1
			V100.1z"/>
	</g>
</g>
<g id="straight_ORANGE_CMYK" class="st0">
	<g class="st1">
		<path class="st6" d="M34,39.1c0,8.8-7.2,15.4-16.1,15.4H0V1.3h16.2c8.4,0,15.4,6.2,15.4,14.6c0,4.5-2.1,8.2-5.5,10.6
			C30.8,29,34,33.4,34,39.1z M6.8,7.8v16h9.5c4.6,0,8.4-3.3,8.4-8S21,7.8,16.3,7.8H6.8z M27.1,39.1c0-5.1-4-8.7-9.1-8.7H6.8v17.6
			h11.1C23.1,47.9,27.1,44.2,27.1,39.1z"/>
		<path class="st6" d="M73.6,47.8v6.6H46.3V1.3h6.9v46.5H73.6z"/>
		<path class="st6" d="M85.4,1.3h6.9v53.1h-6.9V1.3z"/>
		<path class="st6" d="M152.7,48.1l8.1,9h-9l-4.6-5.1c-4.1,2.3-8.9,3.6-14,3.6c-15.7,0-28.4-12.3-28.4-27.8S117.5,0,133.2,0
			c15.7,0,28.4,12.3,28.4,27.8C161.7,35.9,158.2,43.1,152.7,48.1z M142.7,46.9L131,33.8h9l8.2,9.3c4-3.8,6.4-9.2,6.4-15.3
			c0-11.9-9.3-21.1-21.4-21.1c-12.1,0-21.4,9.2-21.4,21.1s9.3,21.1,21.4,21.1C136.6,48.9,139.8,48.2,142.7,46.9z"/>
		<path class="st6" d="M173.7,37.6V1.3h6.9v36.3c0,6.4,4.9,11.3,11.5,11.3c6.5,0,11.4-4.9,11.4-11.3V1.3h6.9v36.3
			c0,10.1-8.1,18-18.3,18S173.7,47.7,173.7,37.6z"/>
		<path class="st6" d="M233.2,7.9v15.9h20.5v6.6h-20.5v17.4h21.5v6.6h-28.4V1.3h28.4v6.6H233.2z"/>
	</g>
	<g class="st1">
		<path class="st6" d="M75.3,96.7c0,3.5-2.9,6.1-6.4,6.1h-7v-21h6.4c3.3,0,6.1,2.5,6.1,5.8c0,1.8-0.8,3.2-2.2,4.2
			C74.1,92.7,75.3,94.4,75.3,96.7z M64.6,84.3v6.3h3.7c1.8,0,3.3-1.3,3.3-3.1c0-1.9-1.5-3.2-3.3-3.2H64.6z M72.6,96.7
			c0-2-1.6-3.5-3.6-3.5h-4.4v6.9H69C71,100.1,72.6,98.7,72.6,96.7z"/>
		<path class="st6" d="M86.9,93v9.7h-2.7v-9.7l-6.8-11.3h3.1l5.1,8.5l5.1-8.5h3.1L86.9,93z"/>
		<path class="st6" d="M122.5,81.8v21.6h-0.1L108.9,88v14.7h-2.7V81.2h0.1l13.6,15.3V81.8H122.5z"/>
		<path class="st6" d="M127.4,92.2c0-6.1,5-11,11.2-11s11.2,4.9,11.2,11c0,6.1-5,11-11.2,11S127.4,98.3,127.4,92.2z M147.1,92.2
			c0-4.7-3.7-8.3-8.4-8.3c-4.8,0-8.4,3.6-8.4,8.3c0,4.7,3.7,8.3,8.4,8.3C143.4,100.6,147.1,96.9,147.1,92.2z"/>
		<path class="st6" d="M168.2,96.7c0,3.5-2.9,6.1-6.4,6.1h-7v-21h6.4c3.3,0,6.1,2.5,6.1,5.8c0,1.8-0.8,3.2-2.2,4.2
			C166.9,92.7,168.2,94.4,168.2,96.7z M157.5,84.3v6.3h3.8c1.8,0,3.3-1.3,3.3-3.1c0-1.9-1.5-3.2-3.3-3.2H157.5z M165.5,96.7
			c0-2-1.6-3.5-3.6-3.5h-4.4v6.9h4.4C163.9,100.1,165.5,98.7,165.5,96.7z"/>
		<path class="st6" d="M173.1,81.8h2.7v21h-2.7V81.8z"/>
		<path class="st6" d="M181.7,100.1h6.1c2,0,3.6-1.4,3.6-3.4c0-2-1.6-3.4-3.6-3.4H187c-3.4,0-6.1-2.5-6.1-5.8c0-3.3,2.7-5.8,6.1-5.8
			h5.9v2.6h-6c-1.9,0-3.3,1.3-3.3,3.2c0,1.9,1.4,3.1,3.3,3.1h0.8c3.5,0,6.3,2.6,6.3,6c0,3.4-2.8,6-6.3,6h-6.1V100.1z"/>
	</g>
</g>
<g id="straight_LIGHT_ORANGE_CMYK" class="st0">
	<g class="st1">
		<path class="st5" d="M34,39.1c0,8.8-7.2,15.4-16.1,15.4H0V1.3h16.2c8.4,0,15.4,6.2,15.4,14.6c0,4.5-2.1,8.2-5.5,10.6
			C30.8,29,34,33.4,34,39.1z M6.8,7.8v16h9.5c4.6,0,8.4-3.3,8.4-8S21,7.8,16.3,7.8H6.8z M27.1,39.1c0-5.1-4-8.7-9.1-8.7H6.8v17.6
			h11.1C23.1,47.9,27.1,44.2,27.1,39.1z"/>
		<path class="st5" d="M73.6,47.8v6.6H46.3V1.3h6.9v46.5H73.6z"/>
		<path class="st5" d="M85.4,1.3h6.9v53.1h-6.9V1.3z"/>
		<path class="st5" d="M152.7,48.1l8.1,9h-9l-4.6-5.1c-4.1,2.3-8.9,3.6-14,3.6c-15.7,0-28.4-12.3-28.4-27.8S117.5,0,133.2,0
			c15.7,0,28.4,12.3,28.4,27.8C161.7,35.9,158.2,43.1,152.7,48.1z M142.7,46.9L131,33.8h9l8.2,9.3c4-3.8,6.4-9.2,6.4-15.3
			c0-11.9-9.3-21.1-21.4-21.1c-12.1,0-21.4,9.2-21.4,21.1s9.3,21.1,21.4,21.1C136.6,48.9,139.8,48.2,142.7,46.9z"/>
		<path class="st5" d="M173.7,37.6V1.3h6.9v36.3c0,6.4,4.9,11.3,11.5,11.3c6.5,0,11.4-4.9,11.4-11.3V1.3h6.9v36.3
			c0,10.1-8.1,18-18.3,18S173.7,47.7,173.7,37.6z"/>
		<path class="st5" d="M233.2,7.9v15.9h20.5v6.6h-20.5v17.4h21.5v6.6h-28.4V1.3h28.4v6.6H233.2z"/>
	</g>
	<g class="st1">
		<path class="st5" d="M75.3,96.7c0,3.5-2.9,6.1-6.4,6.1h-7v-21h6.4c3.3,0,6.1,2.5,6.1,5.8c0,1.8-0.8,3.2-2.2,4.2
			C74.1,92.7,75.3,94.4,75.3,96.7z M64.6,84.3v6.3h3.7c1.8,0,3.3-1.3,3.3-3.1c0-1.9-1.5-3.2-3.3-3.2H64.6z M72.6,96.7
			c0-2-1.6-3.5-3.6-3.5h-4.4v6.9H69C71,100.1,72.6,98.7,72.6,96.7z"/>
		<path class="st5" d="M86.9,93v9.7h-2.7v-9.7l-6.8-11.3h3.1l5.1,8.5l5.1-8.5h3.1L86.9,93z"/>
		<path class="st5" d="M122.5,81.8v21.6h-0.1L108.9,88v14.7h-2.7V81.2h0.1l13.6,15.3V81.8H122.5z"/>
		<path class="st5" d="M127.4,92.2c0-6.1,5-11,11.2-11s11.2,4.9,11.2,11c0,6.1-5,11-11.2,11S127.4,98.3,127.4,92.2z M147.1,92.2
			c0-4.7-3.7-8.3-8.4-8.3c-4.8,0-8.4,3.6-8.4,8.3c0,4.7,3.7,8.3,8.4,8.3C143.4,100.6,147.1,96.9,147.1,92.2z"/>
		<path class="st5" d="M168.2,96.7c0,3.5-2.9,6.1-6.4,6.1h-7v-21h6.4c3.3,0,6.1,2.5,6.1,5.8c0,1.8-0.8,3.2-2.2,4.2
			C166.9,92.7,168.2,94.4,168.2,96.7z M157.5,84.3v6.3h3.8c1.8,0,3.3-1.3,3.3-3.1c0-1.9-1.5-3.2-3.3-3.2H157.5z M165.5,96.7
			c0-2-1.6-3.5-3.6-3.5h-4.4v6.9h4.4C163.9,100.1,165.5,98.7,165.5,96.7z"/>
		<path class="st5" d="M173.1,81.8h2.7v21h-2.7V81.8z"/>
		<path class="st5" d="M181.7,100.1h6.1c2,0,3.6-1.4,3.6-3.4c0-2-1.6-3.4-3.6-3.4H187c-3.4,0-6.1-2.5-6.1-5.8c0-3.3,2.7-5.8,6.1-5.8
			h5.9v2.6h-6c-1.9,0-3.3,1.3-3.3,3.2c0,1.9,1.4,3.1,3.3,3.1h0.8c3.5,0,6.3,2.6,6.3,6c0,3.4-2.8,6-6.3,6h-6.1V100.1z"/>
	</g>
</g>
<g id="straight_WHITE_CMYK" class="st0">
	<g class="st1">
		<path class="st7" d="M34,39.1c0,8.8-7.2,15.4-16.1,15.4H0V1.3h16.2c8.4,0,15.4,6.2,15.4,14.6c0,4.5-2.1,8.2-5.5,10.6
			C30.8,29,34,33.4,34,39.1z M6.8,7.8v16h9.5c4.6,0,8.4-3.3,8.4-8S21,7.8,16.3,7.8H6.8z M27.1,39.1c0-5.1-4-8.7-9.1-8.7H6.8v17.6
			h11.1C23.1,47.9,27.1,44.2,27.1,39.1z"/>
		<path class="st7" d="M73.6,47.8v6.6H46.3V1.3h6.9v46.5H73.6z"/>
		<path class="st7" d="M85.4,1.3h6.9v53.1h-6.9V1.3z"/>
		<path class="st7" d="M152.7,48.1l8.1,9h-9l-4.6-5.1c-4.1,2.3-8.9,3.6-14,3.6c-15.7,0-28.4-12.3-28.4-27.8S117.5,0,133.2,0
			c15.7,0,28.4,12.3,28.4,27.8C161.7,35.9,158.2,43.1,152.7,48.1z M142.7,46.9L131,33.8h9l8.2,9.3c4-3.8,6.4-9.2,6.4-15.3
			c0-11.9-9.3-21.1-21.4-21.1c-12.1,0-21.4,9.2-21.4,21.1s9.3,21.1,21.4,21.1C136.6,48.9,139.8,48.2,142.7,46.9z"/>
		<path class="st7" d="M173.7,37.6V1.3h6.9v36.3c0,6.4,4.9,11.3,11.5,11.3c6.5,0,11.4-4.9,11.4-11.3V1.3h6.9v36.3
			c0,10.1-8.1,18-18.3,18S173.7,47.7,173.7,37.6z"/>
		<path class="st7" d="M233.2,7.9v15.9h20.5v6.6h-20.5v17.4h21.5v6.6h-28.4V1.3h28.4v6.6H233.2z"/>
	</g>
	<g class="st1">
		<path class="st7" d="M75.3,96.7c0,3.5-2.9,6.1-6.4,6.1h-7v-21h6.4c3.3,0,6.1,2.5,6.1,5.8c0,1.8-0.8,3.2-2.2,4.2
			C74.1,92.7,75.3,94.4,75.3,96.7z M64.6,84.3v6.3h3.7c1.8,0,3.3-1.3,3.3-3.1c0-1.9-1.5-3.2-3.3-3.2H64.6z M72.6,96.7
			c0-2-1.6-3.5-3.6-3.5h-4.4v6.9H69C71,100.1,72.6,98.7,72.6,96.7z"/>
		<path class="st7" d="M86.9,93v9.7h-2.7v-9.7l-6.8-11.3h3.1l5.1,8.5l5.1-8.5h3.1L86.9,93z"/>
		<path class="st7" d="M122.5,81.8v21.6h-0.1L108.9,88v14.7h-2.7V81.2h0.1l13.6,15.3V81.8H122.5z"/>
		<path class="st7" d="M127.4,92.2c0-6.1,5-11,11.2-11s11.2,4.9,11.2,11c0,6.1-5,11-11.2,11S127.4,98.3,127.4,92.2z M147.1,92.2
			c0-4.7-3.7-8.3-8.4-8.3c-4.8,0-8.4,3.6-8.4,8.3c0,4.7,3.7,8.3,8.4,8.3C143.4,100.6,147.1,96.9,147.1,92.2z"/>
		<path class="st7" d="M168.2,96.7c0,3.5-2.9,6.1-6.4,6.1h-7v-21h6.4c3.3,0,6.1,2.5,6.1,5.8c0,1.8-0.8,3.2-2.2,4.2
			C166.9,92.7,168.2,94.4,168.2,96.7z M157.5,84.3v6.3h3.8c1.8,0,3.3-1.3,3.3-3.1c0-1.9-1.5-3.2-3.3-3.2H157.5z M165.5,96.7
			c0-2-1.6-3.5-3.6-3.5h-4.4v6.9h4.4C163.9,100.1,165.5,98.7,165.5,96.7z"/>
		<path class="st7" d="M173.1,81.8h2.7v21h-2.7V81.8z"/>
		<path class="st7" d="M181.7,100.1h6.1c2,0,3.6-1.4,3.6-3.4c0-2-1.6-3.4-3.6-3.4H187c-3.4,0-6.1-2.5-6.1-5.8c0-3.3,2.7-5.8,6.1-5.8
			h5.9v2.6h-6c-1.9,0-3.3,1.3-3.3,3.2c0,1.9,1.4,3.1,3.3,3.1h0.8c3.5,0,6.3,2.6,6.3,6c0,3.4-2.8,6-6.3,6h-6.1V100.1z"/>
	</g>
</g>
<g id="straight_BLACK_CMYK" class="st0">
	<g class="st1">
		<path class="st8" d="M34,39.1c0,8.8-7.2,15.4-16.1,15.4H0V1.3h16.2c8.4,0,15.4,6.2,15.4,14.6c0,4.5-2.1,8.2-5.5,10.6
			C30.8,29,34,33.4,34,39.1z M6.8,7.8v16h9.5c4.6,0,8.4-3.3,8.4-8S21,7.8,16.3,7.8H6.8z M27.1,39.1c0-5.1-4-8.7-9.1-8.7H6.8v17.6
			h11.1C23.1,47.9,27.1,44.2,27.1,39.1z"/>
		<path class="st8" d="M73.6,47.8v6.6H46.3V1.3h6.9v46.5H73.6z"/>
		<path class="st8" d="M85.4,1.3h6.9v53.1h-6.9V1.3z"/>
		<path class="st8" d="M152.7,48.1l8.1,9h-9l-4.6-5.1c-4.1,2.3-8.9,3.6-14,3.6c-15.7,0-28.4-12.3-28.4-27.8S117.5,0,133.2,0
			c15.7,0,28.4,12.3,28.4,27.8C161.7,35.9,158.2,43.1,152.7,48.1z M142.7,46.9L131,33.8h9l8.2,9.3c4-3.8,6.4-9.2,6.4-15.3
			c0-11.9-9.3-21.1-21.4-21.1c-12.1,0-21.4,9.2-21.4,21.1s9.3,21.1,21.4,21.1C136.6,48.9,139.8,48.2,142.7,46.9z"/>
		<path class="st8" d="M173.7,37.6V1.3h6.9v36.3c0,6.4,4.9,11.3,11.5,11.3c6.5,0,11.4-4.9,11.4-11.3V1.3h6.9v36.3
			c0,10.1-8.1,18-18.3,18S173.7,47.7,173.7,37.6z"/>
		<path class="st8" d="M233.2,7.9v15.9h20.5v6.6h-20.5v17.4h21.5v6.6h-28.4V1.3h28.4v6.6H233.2z"/>
	</g>
	<g class="st1">
		<path class="st8" d="M75.3,96.7c0,3.5-2.9,6.1-6.4,6.1h-7v-21h6.4c3.3,0,6.1,2.5,6.1,5.8c0,1.8-0.8,3.2-2.2,4.2
			C74.1,92.7,75.3,94.4,75.3,96.7z M64.6,84.3v6.3h3.7c1.8,0,3.3-1.3,3.3-3.1c0-1.9-1.5-3.2-3.3-3.2H64.6z M72.6,96.7
			c0-2-1.6-3.5-3.6-3.5h-4.4v6.9H69C71,100.1,72.6,98.7,72.6,96.7z"/>
		<path class="st8" d="M86.9,93v9.7h-2.7v-9.7l-6.8-11.3h3.1l5.1,8.5l5.1-8.5h3.1L86.9,93z"/>
		<path class="st8" d="M122.5,81.8v21.6h-0.1L108.9,88v14.7h-2.7V81.2h0.1l13.6,15.3V81.8H122.5z"/>
		<path class="st8" d="M127.4,92.2c0-6.1,5-11,11.2-11s11.2,4.9,11.2,11c0,6.1-5,11-11.2,11S127.4,98.3,127.4,92.2z M147.1,92.2
			c0-4.7-3.7-8.3-8.4-8.3c-4.8,0-8.4,3.6-8.4,8.3c0,4.7,3.7,8.3,8.4,8.3C143.4,100.6,147.1,96.9,147.1,92.2z"/>
		<path class="st8" d="M168.2,96.7c0,3.5-2.9,6.1-6.4,6.1h-7v-21h6.4c3.3,0,6.1,2.5,6.1,5.8c0,1.8-0.8,3.2-2.2,4.2
			C166.9,92.7,168.2,94.4,168.2,96.7z M157.5,84.3v6.3h3.8c1.8,0,3.3-1.3,3.3-3.1c0-1.9-1.5-3.2-3.3-3.2H157.5z M165.5,96.7
			c0-2-1.6-3.5-3.6-3.5h-4.4v6.9h4.4C163.9,100.1,165.5,98.7,165.5,96.7z"/>
		<path class="st8" d="M173.1,81.8h2.7v21h-2.7V81.8z"/>
		<path class="st8" d="M181.7,100.1h6.1c2,0,3.6-1.4,3.6-3.4c0-2-1.6-3.4-3.6-3.4H187c-3.4,0-6.1-2.5-6.1-5.8c0-3.3,2.7-5.8,6.1-5.8
			h5.9v2.6h-6c-1.9,0-3.3,1.3-3.3,3.2c0,1.9,1.4,3.1,3.3,3.1h0.8c3.5,0,6.3,2.6,6.3,6c0,3.4-2.8,6-6.3,6h-6.1V100.1z"/>
	</g>
</g>
</svg>
